<svg width="392" height="310" viewBox="0 0 392 310" fill="none" xmlns="http://www.w3.org/2000/svg">
<path d="M155.593 138.444C154.619 138.306 153.691 137.941 152.899 137.347C151.955 136.631 151.346 135.488 151.027 134.239C152.062 134.208 153.112 134.178 154.147 134.132C154.223 135.701 154.665 137.316 155.593 138.444Z" fill="#1993D3"/>
<path d="M162.58 126.043C160.163 125.559 157.761 126.407 156.156 128.176L151.376 128.404C153.452 123.632 159.447 122.74 162.58 126.043Z" fill="#1993D3"/>
<path d="M160.891 135.915C160.609 136.217 160.173 136.316 159.841 136.25C158.41 135.96 156.872 135.625 155.35 135.183C154.805 135.013 154.402 134.455 154.574 133.767C154.756 133.157 155.396 132.807 155.989 132.99C156.903 133.264 157.846 133.477 158.76 133.675C159.055 132.495 160.802 132.564 160.982 133.797C160.998 133.843 160.998 133.904 161.013 133.95C161.14 134.839 161.433 135.372 160.891 135.915Z" fill="#1993D3"/>
<path d="M64.6953 87.3382C64.2508 86.8904 64.2538 86.1674 64.7012 85.7225L68.4653 81.9839C68.9136 81.5376 69.6353 81.5435 70.0805 81.9898C70.5243 82.4376 70.5213 83.1622 70.0739 83.6055L66.3098 87.3442C65.8659 87.7869 65.1419 87.7881 64.6953 87.3382Z" fill="#1993D3"/>
<path d="M60.5722 82.8126C60.2035 82.3008 60.3195 81.5867 60.8309 81.2178L65.6393 77.7528C66.1507 77.3854 66.8636 77.5014 67.233 78.0117C67.6009 78.525 67.485 79.2376 66.9728 79.6066L62.1659 83.0715C61.6519 83.4421 60.9394 83.3222 60.5722 82.8126Z" fill="#1993D3"/>
<path d="M65.9037 66.3107L61.1138 61.2896C60.6782 60.8343 60.6953 60.1098 61.151 59.6739C61.6081 59.241 62.3298 59.2573 62.7654 59.7126L67.5553 64.7337C67.9909 65.1889 67.9738 65.9134 67.5181 66.3479C67.0603 66.7845 66.3402 66.7678 65.9037 66.3107Z" fill="#1993D3"/>
<path d="M68.7547 61.8594L66.0372 57.6402C65.696 57.1091 65.8491 56.4025 66.3799 56.0603C66.9076 55.7166 67.616 55.8713 67.9579 56.4025L70.6739 60.6217C71.0159 61.1528 70.8627 61.8594 70.3328 62.2016C69.8014 62.541 69.0973 62.3913 68.7547 61.8594Z" fill="#1993D3"/>
<path d="M233.559 64.8735L228.57 64.201C227.945 64.1162 227.506 63.5419 227.591 62.9156C227.676 62.2908 228.251 61.8534 228.875 61.9367L233.864 62.6091C234.489 62.6939 234.927 63.2682 234.843 63.8945C234.757 64.5315 234.164 64.9612 233.559 64.8735Z" fill="#1993D3"/>
<path d="M234.24 60.5071L230.408 59.9641C229.784 59.8763 229.35 59.2976 229.438 58.6728C229.527 58.0479 230.11 57.5986 230.729 57.7028L234.561 58.2458C235.185 58.3336 235.62 58.9123 235.531 59.5371C235.44 60.1803 234.83 60.6042 234.24 60.5071Z" fill="#1993D3"/>
<path d="M213.409 50.4797C212.402 47.3956 211.072 44.4053 209.455 41.592C209.14 41.0445 209.328 40.3468 209.875 40.0314C210.42 39.7204 211.119 39.9049 211.433 40.4524C213.129 43.4011 214.525 46.5372 215.579 49.7715C215.775 50.3711 215.448 51.0153 214.849 51.2116C214.253 51.4067 213.605 51.0823 213.409 50.4797Z" fill="#1993D3"/>
<path d="M219.455 49.3699L217.713 41.1621C217.582 40.5447 217.976 39.9377 218.593 39.8068C219.203 39.6684 219.816 40.0686 219.947 40.686L221.69 48.8939C221.821 49.5113 221.427 50.1183 220.81 50.2492C220.215 50.3826 219.59 50.0007 219.455 49.3699Z" fill="#1993D3"/>
<path d="M321.367 231.221C321.024 233.548 320.974 236.167 321.447 238.484C322.817 245.211 328.679 250.52 335.396 251.595C340.107 252.349 345.118 250.96 348.771 247.889C353.334 244.052 355.509 237.659 354.853 231.795C354.457 228.265 353.005 224.085 349.401 222.746C346.639 221.719 345.04 222.017 328.514 222.835C327.374 222.892 325.307 222.605 324.448 223.313C322.587 224.846 321.698 228.977 321.367 231.221Z" fill="#1993D3"/>
<path d="M68.108 241.927C70.0304 236.332 69.6829 229.649 67.5438 224.169C66.8583 222.413 65.5583 222.634 63.788 222.401C58.1896 221.664 52.5129 221.523 46.8849 221.983C44.0285 222.217 41.0976 222.633 38.6223 224.079C30.3783 228.893 34.934 242.048 40.6855 246.988C49.0742 254.193 64.11 253.56 68.108 241.927Z" fill="#1993D3"/>
<path d="M130.529 150.224C127.718 146.062 125.846 141.289 125.115 136.32C125.023 135.695 124.435 135.274 123.819 135.356C123.195 135.448 122.764 136.029 122.856 136.653C126.39 160.649 152.474 174.529 174.219 163.988C184.3 159.174 191.94 149.68 194.17 138.239C194.422 136.934 192.576 136.292 192.021 137.579C190.01 137.699 188.332 136.597 186.111 135.987C180.598 134.492 174.177 137.176 170.505 142.502C167.583 146.727 166.271 152.483 166.712 159.149C166.851 160.949 167.041 162.664 166.622 164.267C164.748 164.705 163.305 164.975 161.054 165.127C159.71 163.072 159.915 160.285 159.164 157.523C156.674 148.334 144.81 144.68 137.668 151.754C136.539 152.869 135.639 154.177 134.475 155.044C133.714 154.275 133.095 153.65 131.902 152.1C132.174 151.789 132.477 151.483 132.792 151.166C137.396 146.559 138.637 140.368 137.058 135.157C136.875 134.551 136.237 134.22 135.634 134.395C135.03 134.578 134.69 135.216 134.873 135.82C135.05 136.404 135.184 136.984 135.273 137.543C135.914 141.575 134.574 145.941 131.779 148.936C131.253 149.491 131.273 149.435 130.529 150.224ZM173.7 161.674C173.146 158.09 173.375 153.645 174.93 150.084C176.924 145.544 181.628 141.918 186.56 142.451C187.854 142.6 189.119 143.006 190.426 143.096C187.44 151.129 181.387 157.849 173.7 161.674ZM158.541 165.221C151.504 165.183 144.73 163.013 139.066 158.992C142.234 156.905 143.63 153.41 148.99 152.78C151.468 152.464 153.086 153.074 153.966 153.258C158.344 157.422 156.733 161.163 158.541 165.221Z" fill="#151515"/>
<path d="M160.069 136.265C159.993 136.265 159.917 136.265 159.841 136.25C158.41 135.96 156.872 135.625 155.35 135.183C154.863 135.031 154.543 134.589 154.528 134.117C154.406 134.132 154.269 134.132 154.147 134.132C154.223 135.701 154.665 137.316 155.593 138.444C158.837 138.976 162.018 136.735 163.372 133.889C162.581 133.904 161.804 133.919 161.013 133.95C161.14 134.839 161.433 135.372 160.891 135.915C160.678 136.143 160.373 136.265 160.069 136.265Z" fill="#151515"/>
<path d="M162.323 52.8948C168.92 52.0407 170.937 43.7631 168.153 42.9778C167.245 42.7215 166.368 43.4734 165.831 44.2507C165.295 45.0277 164.826 45.9497 163.953 46.3103C162.626 46.8587 161.207 45.8179 160.199 44.7945C159.19 43.7713 157.976 42.5947 156.56 42.8348C154.04 43.2617 153.328 47.5005 154.544 49.3233C156.196 51.7995 159.37 53.2771 162.323 52.8948Z" fill="#151515"/>
<path d="M90.4298 139.866C90.8126 139.366 90.7175 138.649 90.2165 138.265C89.7147 137.881 88.9982 137.976 88.6161 138.479C85.886 142.053 83.3141 145.608 81.8535 149.817C78.1001 160.632 84.157 169.933 95.9139 169.933C104.465 169.933 111.158 164.4 117.266 158.485C118.266 158.834 119.083 159.09 120.147 159.057C119.88 164.484 119.588 170.093 119.223 175.005C115.799 177.516 113.044 180.911 111.42 185.58C117.219 185.199 122.456 185.534 128.241 185.153C152.933 183.523 177.7 181.893 202.407 183.188L202.377 183.721C202.483 183.553 202.574 183.386 202.666 183.203C202.924 183.203 203.183 183.218 203.442 183.234C203.335 182.746 203.244 182.274 203.138 181.786C203.792 178.709 202.057 175.159 199.423 173.194C198.393 172.432 197.259 171.862 196.072 171.404C195.131 162.492 195.286 161.284 195.134 160.314C195.72 159.577 196.291 158.828 196.834 158.053C198.007 158.115 198.848 157.816 199.817 157.483C205.913 163.389 212.613 168.934 221.173 168.934C232.955 168.934 238.975 159.605 235.232 148.819C233.773 144.611 231.2 141.054 228.469 137.481C228.087 136.979 227.369 136.881 226.869 137.267C226.368 137.65 226.273 138.367 226.655 138.867C229.269 142.289 231.726 145.681 233.075 149.569C234.541 153.794 234.332 157.992 232.5 161.088C229.192 166.68 221.377 167.68 215.704 165.785C210.453 164.028 206.044 160.274 202.114 156.516C208.069 153.456 211.878 147.323 211.608 140.14C216.205 144.245 219.506 147.971 223.686 152.624C223.912 152.876 224.223 153.004 224.536 153.004C225.516 153.004 226.046 151.832 225.385 151.098L224.96 150.623C220.181 145.301 216.696 141.426 211.148 136.71C211.05 136.359 210.931 136.013 210.772 135.685C210.496 135.12 209.812 134.882 209.245 135.16C208.678 135.437 208.443 136.119 208.719 136.688C208.858 136.973 208.957 137.265 209.022 137.58C210.477 144.584 207.194 151.705 200.351 154.813C200.147 154.612 199.937 154.409 199.734 154.21C199.284 153.767 198.561 153.776 198.12 154.225C197.732 154.621 197.711 155.218 198.013 155.659C197.493 155.786 196.95 155.848 196.473 155.695C196.083 155.575 195.747 155.191 195.796 154.927C195.986 153.92 199.76 153.888 200.356 151.29C200.789 149.327 199.036 148.024 198.176 146.996C197.357 146.034 196.894 144.174 197.545 143.313C197.659 143.164 197.831 143.023 198.031 142.859C199.864 141.362 200.06 139.454 200.615 136.09C200.724 135.468 200.31 134.876 199.688 134.767C199.075 134.654 198.477 135.072 198.366 135.694C197.326 142.002 197.054 140.193 195.727 141.931C194.315 143.801 194.997 146.785 196.432 148.471C197.158 149.341 198.254 150.216 198.128 150.787C197.881 151.863 194.061 151.817 193.551 154.508C193.352 155.59 193.858 156.564 194.614 157.21C191.52 161.506 187.756 165.205 183.348 168.165C176.065 173.09 167.528 175.693 158.656 175.693C149.888 175.693 141.4 173.13 134.11 168.283C129.785 165.401 126.045 161.842 122.98 157.695C123.302 157.27 123.499 156.784 123.555 156.244C123.826 153.613 120.851 153.043 119.565 152.332C119.388 152.009 119.221 151.682 119.057 151.349C119.567 150.53 120.028 150.222 120.65 149.478C122.087 147.768 122.764 144.78 121.363 142.944C120.871 142.28 120.163 141.911 119.917 141.511C119.108 140.169 118.999 137.915 118.544 135.809C118.41 135.191 117.809 134.815 117.186 134.934C116.57 135.068 116.179 135.676 116.312 136.294C116.769 138.395 116.865 140.874 117.967 142.7C118.501 143.57 119.203 143.867 119.539 144.318C120.189 145.169 119.723 147.032 118.902 148.009C118.138 148.916 116.913 149.83 116.7 151.272C116.699 151.28 116.701 151.287 116.7 151.295C116.179 154.732 121.072 154.794 121.293 155.939C121.354 156.227 120.922 156.598 120.616 156.699C120.152 156.843 119.6 156.78 119.074 156.658C119.866 155.498 118.315 154.264 117.352 155.21C117.149 155.409 116.939 155.612 116.734 155.813C110.23 152.844 106.865 146.22 107.942 139.352C108.518 138.85 109.084 138.334 109.667 137.842C110.149 137.435 110.21 136.715 109.803 136.233C109.397 135.752 108.679 135.688 108.194 136.096C108.187 136.102 108.179 136.109 108.172 136.115C108.113 136.065 108.065 136.005 107.995 135.966C107.442 135.663 106.748 135.87 106.446 136.421C106.152 136.959 105.943 137.533 105.826 138.12C105.822 138.138 105.821 138.157 105.817 138.175C100.851 142.534 96.103 147.193 91.7008 152.096C91.0368 152.835 91.5725 154.002 92.5497 154.002C92.8619 154.002 93.1733 153.874 93.3986 153.623C97.1895 149.401 101.23 145.349 105.454 141.527C105.395 145.109 106.386 148.64 108.335 151.565C109.996 154.09 112.294 156.134 114.973 157.515C111.042 161.272 106.632 165.026 101.382 166.783C95.7095 168.677 87.8936 167.679 84.5852 162.086C82.7537 158.99 82.5441 154.792 84.0106 150.567C85.3597 146.678 87.8171 143.286 90.4298 139.866ZM193.016 162.774C193.172 165.129 193.393 167.676 193.697 170.646C191.201 170.008 188.42 169.685 185.617 169.323C188.325 167.4 190.791 165.207 193.016 162.774ZM131.996 169.562C128.303 170.421 124.754 171.636 121.62 173.435C121.901 169.361 122.14 164.941 122.358 160.558C125.125 163.996 128.35 167.015 131.996 169.562Z" fill="#151515"/>
<path d="M362.346 209.092C359.967 206.924 357.434 204.935 354.77 203.155C356.107 201.554 357.444 199.953 358.781 198.352C359.845 197.078 356.983 194.177 355.484 193.736C353.736 193.222 352.793 194.471 351.813 195.628C350.726 196.913 349.636 198.194 348.546 199.476C348.069 199.229 346.868 198.592 346.382 198.386C345.471 197.987 341.914 196.953 341.087 196.381C334.981 183.19 329.672 174.08 324.814 163.668C321.146 155.805 318.273 149.788 312.474 143.474C307.31 137.84 302.853 135.41 296.684 133.232C286.198 129.51 276.248 128.847 265.027 127.91C243.304 126.288 231.421 125.348 204.837 125.065C202.733 109.214 192.93 96.0217 179.19 89.3407C179.762 89.1914 180.045 88.7103 180.045 88.2472C180.045 85.7384 179.765 83.2206 179.232 80.7565C190.322 82.1587 200.165 87.3033 206.994 95.2976C214.164 103.693 219.875 113.137 223.964 123.37C224.193 123.944 224.848 124.244 225.448 124.006C226.034 123.773 226.318 123.108 226.084 122.522C221.902 112.057 216.063 102.397 208.73 93.8128C201.408 85.242 190.823 79.7716 178.927 78.4089C178.828 78.3992 178.738 78.4221 178.644 78.4353C177.684 75.0849 176.252 71.8753 174.381 68.9796C174.039 68.45 173.33 68.2998 172.802 68.6404C172.764 68.665 172.743 68.7033 172.709 68.7316C172.219 67.1046 171.94 67.426 171.694 63.5033L171.411 58.9918C175.692 56.9751 179.657 52.0883 180.808 44.3533C187.274 42.6916 188.647 35.0808 183.844 32.1981C188.073 29.4649 189.59 24.9389 188.709 21.4433C188.051 18.8357 185.854 16.579 183.19 16.2238C184.703 15.8785 185.753 14.3644 185.923 12.8212C186.093 11.2781 185.53 9.73751 184.747 8.39781C180.4 0.967643 170.268 -0.633212 163.846 5.11105C157.778 -1.60219 144.625 -0.721767 140.222 6.04311C137.957 9.52142 138.535 14.918 142.115 17.0149C138.854 16.1701 135.112 18.1997 134.039 21.3957C132.966 24.5917 134.724 28.4703 137.833 29.7679C137.442 30.6171 137.685 31.5938 138.261 32.3436C134.657 34.7582 134.937 39.9258 138.304 42.6275C139.513 43.5986 140.942 44.0604 142.436 44.3533C143.726 50.2108 147.682 56.4792 153.294 59.4191C153.298 61.9233 153.112 62.9311 153.398 65.4746C153.417 65.6427 153.415 65.8151 153.421 65.986C152.961 65.2762 152.043 65.3226 151.591 65.8777C148.652 69.4849 146.273 73.5394 144.534 78.1123C144.337 77.9023 144.062 77.7653 143.751 77.7528C137.501 77.488 131.008 78.94 124.954 81.9214C115.781 86.4382 109.811 93.7548 103.501 102.149C91.4266 118.2 91.2351 118.035 90.9824 120.177C90.5613 123.726 93.9029 126.494 97.2195 130.444C97.6322 130.921 98.3538 130.972 98.8295 130.558C99.3059 130.145 99.3572 129.423 98.9447 128.947C95.6289 125.034 92.9812 122.711 93.2495 120.445C93.4126 119.067 93.5827 119.134 105.325 103.523C111.457 95.3675 117.241 88.2666 125.962 83.9715C131.758 81.1165 137.714 79.8088 143.657 80.035C143.733 80.0443 143.797 80.0192 143.868 80.0126C142.216 84.9727 142.515 85.3044 142.386 87.3858C142.382 87.4416 142.402 87.4915 142.406 87.5456C124.964 94.0254 112.71 110.606 112.049 129.642C91.1959 132.237 88.491 131.168 77.2673 146.535C63.9353 164.779 60.6653 173.75 50.525 194.384C49.3569 196.765 46.2027 197.727 42.6206 200.175C41.3332 198.66 40.044 197.146 38.7593 195.628C37.7796 194.471 36.8366 193.222 35.0883 193.736C33.8958 194.087 32.2551 195.76 31.8241 196.717C31.5489 197.328 31.3626 197.838 31.7918 198.352C33.3571 200.226 34.9223 202.101 36.4877 203.975L40.043 201.975C36.0236 204.846 36.136 204.87 31.7775 208.251C26.5619 212.285 21.5188 216.355 18.4735 221.86C14.7079 228.664 13.9057 236.722 13.4853 243.971C12.4693 261.491 16.8328 287.597 23.1542 304.666C23.3131 305.063 23.731 305.413 24.2298 305.413C24.2312 305.413 24.2325 305.412 24.2339 305.412C24.2375 305.411 24.2271 305.416 24.2662 305.406C25.0643 305.381 25.5385 304.536 25.3006 303.873C19.1895 287.401 14.7586 261.306 15.7712 244.109C16.9258 223.848 21.2052 219.326 33.8779 209.509C37.0796 207.026 39.9079 204.715 44.6982 201.52C47.2284 199.855 51.0516 198.491 52.572 195.396C62.9815 174.225 66.7125 164.185 81.3361 144.827C81.4387 144.692 81.5432 144.56 81.6461 144.425C88.3564 135.661 91.8939 134.524 102.329 133.188L104.806 132.868C123.368 130.521 107.941 131.615 199.367 127.279C215.482 127.279 236.347 128 257.036 129.561C274.545 130.892 284.594 131.709 293.911 134.72C296.741 135.636 300.191 136.883 302.87 138.466C315.811 146.039 321.357 162.351 326.151 171.7C330.852 180.794 335.266 189.227 339.075 197.492C339.66 198.73 342.519 199.404 345.117 200.342C346.492 200.86 349.677 202.635 351.467 203.738C355.287 206.084 358.865 208.857 362.123 211.98C370.561 220.074 374.865 229.116 374.98 241.442C375.163 261.055 372.271 281.058 366.489 299.988C366.346 300.454 366.522 300.935 366.885 301.218C367.571 301.758 368.457 301.36 368.672 300.655C374.658 281.06 377.446 260.109 377.269 241.428C377.137 227.751 372.17 218.011 362.346 209.092ZM160.906 118.922C160.752 117.09 159.493 115.616 158.381 114.317C158.166 114.065 157.953 113.817 157.753 113.57C154.68 109.787 154.074 104.277 156.123 99.8731C156.472 99.7831 156.767 99.538 156.902 99.1925C157.144 98.5795 157.411 97.9813 157.68 97.3832C174.456 96.8753 189.085 108.972 192.003 125.338L184.822 125.678C177.144 122.814 169.629 120.648 160.906 118.922ZM154.02 97.7018C154.13 97.8948 154.252 98.1016 154.344 98.279C151.576 103.55 152.223 110.385 155.981 115.011C156.845 116.072 158.042 117.292 158.465 118.479C143.888 115.832 136.814 116.228 132.668 115.846C131.413 115.732 129.964 115.62 128.556 115.684C133.598 105.946 143.132 99.1854 154.02 97.7018ZM127.437 118.072C128.951 117.803 130.804 117.971 132.46 118.122C136.912 118.531 155.279 118.162 178.746 125.957L163.099 126.699C162.933 126.477 162.776 126.248 162.581 126.043C160.908 125.708 159.222 125.979 157.65 126.957C148.175 127.407 142.323 127.684 132.731 128.139C129.786 125.365 127.183 124.978 125.655 123.536C125.676 123.441 126.137 121.087 127.437 118.072ZM125.176 126.042C126.812 127.116 127.221 127.011 129.219 128.31L124.88 128.517C124.949 127.684 125.045 126.859 125.176 126.042ZM177.842 88.7492C174.299 87.1636 170.519 86.0078 166.553 85.335C167.447 84.5949 168.471 83.8997 169.612 83.6695C171.019 83.3883 172.695 83.8569 174.212 84.9519C175.618 85.9758 176.795 87.4294 177.842 88.7492ZM172.848 70.8581C175.436 75.0793 177.081 79.9522 177.59 84.9192C175.333 82.5467 172.361 80.7991 169.163 81.429C166.974 81.8709 165.195 83.3915 163.608 84.9051C162.162 84.7483 160.691 84.6763 159.209 84.6596C162.13 78.3019 167.305 76.6794 169.469 75.2579C171.067 74.2096 172.495 72.7223 172.848 70.8581ZM170.293 68.7312C170.631 69.6417 170.8 70.0984 170.468 70.9077C169.585 73.0683 166.8 74.0735 164.725 75.2965C161.201 77.3708 158.444 80.6744 157.042 83.8867C155.668 80.7599 154.787 76.4146 154.994 72.1381C155.105 69.8652 155.946 67.6955 155.667 65.2187C155.44 63.1995 155.537 62.1973 155.573 60.4088C159.023 61.5711 162.899 61.8138 169.177 59.8517C169.54 65.1356 169.425 66.4062 170.293 68.7312ZM144.793 44.3228C145.902 43.7732 145.462 42.0921 144.216 42.1574C142.808 42.2514 140.947 41.8258 139.738 40.8484C139.738 40.8482 139.738 40.8484 139.738 40.8484C136.967 38.605 137.651 34.5524 140.446 33.8246C141.669 33.5109 143.237 34.2065 143.676 35.4046C143.893 35.9952 144.55 36.3002 145.141 36.083C145.733 35.8658 146.037 35.2097 145.82 34.6161C145.553 33.8882 145.086 33.2697 144.514 32.7653C147.966 31.1454 151.083 27.8183 151.843 24.0569C151.707 24.7388 153.104 25.9647 153.529 26.351C157.635 30.0888 163.784 27.7811 165.52 23.5325C166.039 28.8121 170.553 33.9118 176.655 34.1798C176.522 34.4433 176.414 34.7206 176.335 35.0103C176.171 35.6203 176.531 36.2466 177.14 36.4118C177.747 36.5843 178.374 36.2169 178.54 35.6084C178.716 34.9576 179.226 34.3198 180.184 33.9302C181.872 33.245 183.641 34.4088 184.232 36.0874C185.17 38.8023 182.791 42.2738 178.591 42.382C177.247 42.4169 177.046 44.3787 178.422 44.6281C178.21 45.8566 177.953 47.0302 177.592 48.1217C176.431 51.5777 174.325 54.4639 171.657 56.2536C169.652 57.6104 166.569 58.2263 164.046 58.7322C154.528 60.6638 146.997 53.3334 144.793 44.3228ZM153.375 67.2955C153.208 68.841 152.794 70.3728 152.714 72.028C152.484 76.7703 153.515 81.5706 154.951 84.8046C153.636 84.9088 152.336 85.0644 151.053 85.2788C150.488 82.668 150.604 82.2287 150.175 81.3457C149.428 79.7612 147.73 79.0946 146.252 80.0275C148.797 72.7693 152.324 68.8311 153.375 67.2955ZM146.739 82.7248C148.319 80.5017 148.237 83.1743 148.775 85.6943C147.456 85.9781 146.16 86.3165 144.888 86.7085C145.284 85.2807 145.908 83.9153 146.739 82.7248ZM114.333 129.361C115.432 103.75 138.246 84.1011 163.878 87.2177C163.879 87.2192 163.881 87.2192 163.882 87.2192C184.017 89.5802 199.749 105.035 202.557 125.011C195.773 124.955 199.529 125.083 194.335 125.22C191.015 105.653 172.329 92.8436 154.495 95.3229C154.484 95.3244 154.462 95.3279 154.45 95.3294C137.343 97.2828 123.84 111.287 122.551 128.624C118.739 128.934 122.26 128.373 114.333 129.361Z" fill="#151515"/>
<path d="M30.1041 202.374C30.6809 202.374 31.1767 201.938 31.2384 201.35C31.3038 200.724 30.8489 200.162 30.2223 200.095C14.3405 198.422 11.4818 198.378 8.13052 196.579C2.50603 193.561 0.655562 186.701 3.81563 181.753C7.52298 175.943 20.0185 172.756 26.8522 171.934C29.87 171.568 34.2302 171.349 37.2495 173.615C39.4884 175.293 40.8746 178.285 41.0515 181.82C41.2158 185.122 40.3907 188.461 39.5924 191.689C39.4408 192.301 39.8147 192.921 40.4264 193.073C41.0404 193.226 41.6581 192.85 41.809 192.237C42.6467 188.849 43.5134 185.344 43.332 181.706C43.1209 177.489 41.4031 173.874 38.6187 171.785C34.943 169.03 29.9904 169.253 26.5794 169.665C21.2655 170.304 16.0675 171.673 11.1298 173.734C8.0153 175.035 4.14937 176.983 1.89121 180.524C-1.95661 186.547 0.216536 194.924 7.05124 198.594C10.2006 200.284 13.8413 200.668 17.0532 201.007C31.837 202.56 29.9471 202.374 30.1041 202.374Z" fill="#151515"/>
<path d="M390.12 179.473C387.859 175.93 383.993 173.984 380.879 172.685C373.509 169.61 359.771 165.95 353.391 170.734C350.606 172.823 348.889 176.44 348.678 180.658C348.496 184.297 349.363 187.799 350.201 191.188C350.353 191.799 350.969 192.179 351.583 192.021C352.196 191.871 352.569 191.25 352.417 190.637C351.619 187.41 350.794 184.073 350.959 180.771C351.135 177.234 352.52 174.243 354.76 172.564C361.421 167.572 383.748 173.736 388.195 180.702C391.34 185.634 389.523 192.502 383.88 195.529C380.591 197.296 377.801 197.361 361.787 199.044C361.161 199.111 360.706 199.674 360.771 200.3C360.838 200.94 361.414 201.385 362.027 201.318C378.052 199.632 381.182 199.571 384.959 197.543C388.102 195.856 390.479 192.979 391.477 189.651C392.506 186.223 391.998 182.418 390.12 179.473Z" fill="#151515"/>
<path d="M163.825 192.751C162.739 192.277 161.539 192.149 160.36 192.035C146.04 190.643 131.6 190.482 117.253 191.553C114.598 191.751 111.885 192.007 109.469 193.124C106.751 194.381 102.355 198.927 106.947 200.953C107.991 201.414 109.164 201.462 110.305 201.504C126.258 202.08 142.357 202.654 158.244 200.943C161.208 200.624 167.387 200.108 166.172 195.255C165.884 194.105 164.911 193.225 163.825 192.751Z" fill="#151515"/>
<path d="M228.142 201.098C229.146 201.575 230.291 201.668 231.405 201.752C246.957 202.936 262.696 204.128 278.303 203.155C281.214 202.974 287.275 202.736 286.276 198.114C286.039 197.019 285.122 196.15 284.078 195.66C283.035 195.17 281.866 195.001 280.718 194.845C266.769 192.957 252.656 192.223 238.584 192.655C235.981 192.734 233.318 192.867 230.912 193.822C228.205 194.897 223.731 199.004 228.142 201.098Z" fill="#151515"/>
<path d="M54.5326 202.703L55.151 202.591C61.5805 201.39 62.0054 196.199 59.8153 196.23C59.185 196.246 58.6869 196.77 58.7026 197.401C58.7412 198.906 56.6711 199.982 54.7326 200.345C52.0596 200.824 49.2117 201.254 47.796 203.606C46.1472 206.343 47.8084 210.013 50.5522 211.547C53.0869 212.968 56.0958 212.891 58.5085 212.833C96.9058 211.899 135.343 207.642 173.782 207.642C203.832 207.478 238.774 207.483 273.238 209.593C308.117 211.71 325.189 214.326 332.755 214.326C338.649 214.325 342.306 211.925 342.616 207.776C342.879 204.268 340.809 201.432 337.58 200.882C334.601 200.378 334.571 201.888 332.539 196.968C332.286 196.355 332.05 195.785 331.822 195.339C331.537 194.775 330.851 194.555 330.287 194.837C329.725 195.124 329.501 195.812 329.787 196.374C330.584 197.946 331.451 201.089 333.162 202.32C334.508 203.288 336.191 202.962 337.198 203.134C339.283 203.49 340.516 205.245 340.339 207.606C340.013 211.973 334.163 212.139 331.664 212.012C307.916 210.782 282.824 204.753 173.776 205.357C135.191 205.357 96.8728 209.614 58.4528 210.548C56.2028 210.609 53.6562 210.667 51.6672 209.554C50.036 208.64 48.806 206.359 49.7524 204.784C50.579 203.411 52.5889 203.051 54.5326 202.703Z" fill="#151515"/>
<path d="M355.671 225.752C350.948 220.132 344.806 221.402 338.749 221.402H57.7201C51.3049 221.402 43.1413 220.313 37.3528 223.967C26.4807 230.828 27.5667 251.28 40.2531 257.662C42.6994 258.893 45.4303 259.533 48.0891 259.533C49.1906 259.533 50.2803 259.422 51.3314 259.199H179.522C189.33 259.199 198.867 259.433 208.664 259.433H337.813C344.733 259.433 351.868 259.442 357.098 253.256C360.662 249.044 360.339 244.904 359.998 240.519C359.657 236.148 359.799 230.661 355.671 225.752ZM355.356 251.78C350.809 257.155 344.513 257.136 337.815 257.148C206.913 257.093 51.7451 256.767 50.9634 256.941C47.8453 257.631 44.3153 257.149 41.2789 255.621C30.2227 250.057 29.1505 231.843 38.5703 225.901C43.7232 222.649 51.3342 223.687 57.7201 223.687C358.703 223.651 337.633 223.762 341.717 223.619C346.498 223.451 350.633 223.308 353.924 227.222C356.695 230.519 357.416 234.777 357.532 237.769C357.753 243.38 358.998 247.476 355.356 251.78Z" fill="#151515"/>
<path d="M303.441 294.404H87.7053C82.9939 294.404 78.7812 293.458 79.0346 299.512C79.1605 302.526 80.4411 305.583 81.9861 308.325H308.837C310.027 306.031 310.844 303.549 311.195 300.977C312.206 293.569 308.56 294.404 303.441 294.404Z" fill="#151515"/>
<path d="M340.077 292.887C337.411 292.463 334.848 292.028 332.016 292.025C325.06 292.068 319.877 295.239 317.082 302.687C316.606 303.953 315.958 305.926 315.576 308.129C315.518 308.462 315.61 308.803 315.826 309.061C316.475 309.834 315.871 309.318 342.115 309.468C342.547 309.468 342.999 309.101 343.193 308.715C345.194 304.711 345.135 298.631 345.155 298.478C345.269 294.919 344.622 293.613 340.077 292.887ZM342.858 299.026C342.843 301.769 342.328 304.566 341.349 307.183H318.097C320.336 297.532 325.421 294.354 332.031 294.31C334.526 294.333 337.016 294.704 339.454 295.101C340.445 295.26 341.767 295.431 342.523 296C342.94 296.312 342.861 298.266 342.858 299.026Z" fill="#151515"/>
<path d="M68.9552 295.168C64.6493 291.971 58.6118 292.421 53.342 292.669C50.8111 292.774 47.9627 293.06 46.2004 295.123C43.2808 298.543 45.484 304.929 47.5368 308.855C47.7338 309.232 48.1233 309.468 48.5485 309.468H73.2047C73.8961 309.468 74.4303 308.855 74.3352 308.169C74.0818 306.333 73.6603 304.56 73.0828 302.897C72.1987 300.282 71.1409 296.792 68.9552 295.168ZM49.2494 307.183C47.9073 304.445 45.8954 298.998 47.9367 296.608C49.1022 295.242 51.2935 295.04 53.4372 294.951C58.1542 294.729 63.865 294.232 67.5942 297.002C69.5839 298.488 71.4276 304.885 71.8615 307.183H49.2494Z" fill="#151515"/>
<path d="M211.728 229.916C199.689 228.728 187.582 229.372 175.742 231.831C175.125 231.959 174.728 232.564 174.856 233.182C174.985 233.801 175.6 234.197 176.206 234.069C187.819 231.655 199.694 231.023 211.503 232.19C213.366 232.373 213.97 232.986 211.911 233.581L188.188 240.384C186.996 240.723 187.135 242.469 188.366 242.616C200.753 244.159 202.845 244.091 203.376 244.908C203.747 245.491 203.108 246.471 202.449 246.854C201.443 247.438 200.059 247.542 198.663 247.928C194.754 249.019 193.888 252.428 195.708 252.774C196.297 252.895 196.922 252.506 197.044 251.866C197.209 250.999 198.305 250.401 199.275 250.13C200.605 249.758 202.164 249.661 203.595 248.83C205.386 247.791 206.43 245.425 205.292 243.666C204.371 242.244 202.576 242.026 201.612 241.91L194.248 241.022L212.54 235.776C216.911 234.518 216.328 230.369 211.728 229.916Z" fill="#151515"/>
<path d="M57.177 227.621C56.6351 227.301 55.9334 227.475 55.6116 228.018C55.2883 228.559 55.4659 229.26 56.007 229.584C58.0942 230.83 58.9505 233.981 57.84 236.327C56.7615 238.606 54.0061 240.1 51.258 239.966C45.9345 239.629 42.5127 234.1 44.5913 229.183C44.8366 228.603 44.5653 227.932 43.9841 227.686C43.4021 227.438 42.7338 227.713 42.4878 228.293C39.8003 234.652 44.2265 241.816 51.1153 242.245C54.6418 242.492 58.3708 240.545 59.9034 237.306C61.5149 233.9 60.2662 229.465 57.177 227.621Z" fill="#151515"/>
<path d="M344.493 231.269C343.918 231.013 343.243 231.266 342.982 231.84C342.053 233.897 341.092 236.026 339.486 237.532C335.147 241.596 329.332 237.781 332.729 230.263C332.988 229.689 332.733 229.012 332.159 228.751C331.586 228.494 330.909 228.747 330.648 229.323C326.183 239.205 334.951 244.922 341.048 239.198C342.985 237.383 344.089 234.937 345.063 232.78C345.323 232.206 345.068 231.529 344.493 231.269Z" fill="#151515"/>
<g opacity="0.42">
<path d="M329.64 191.826C327.676 192.085 325.058 190.577 323.079 190.18C315.688 188.725 304.561 187.817 297.261 186.981C239.12 180.455 167.892 182.286 109.319 186.25C94.3548 187.255 79.4214 188.459 64.5029 189.906C63.285 190.028 58.2766 189.48 57.7593 191.094C60.9559 181.375 65.325 172.036 70.7136 163.337C83.8457 141.966 88.7104 137.367 118.438 135.672C173.593 132.531 228.58 132.885 283.774 136.708C298.111 137.697 308.108 146.954 314.235 159.712C319.365 170.36 325.104 180.918 329.64 191.826Z" fill="#1993D3"/>
</g>
<path d="M224.446 59.8342C223.959 63.6124 221.113 66.8574 215.952 69.4929C212.623 71.2309 208.521 72.6269 206.057 75.7237C202.713 79.9349 203.253 86.1273 203.576 91.5979C203.88 96.93 203.682 104.486 198.4 108.462C192.812 112.668 185.312 110.29 178.93 110.839C170.612 111.556 163.402 117.609 161.347 126.789L159.003 126.896C161.085 116.433 169.211 109.381 178.732 108.554C180.833 108.386 183.025 108.493 185.141 108.599C189.601 108.828 193.833 109.041 197.03 106.634C200.394 104.105 201.749 99.3827 201.292 91.7197C200.935 85.6294 200.477 79.0875 204.261 74.2915C207.008 70.8692 211.161 69.3736 214.917 67.4513C217.961 65.8976 221.706 63.2619 222.178 59.5448C222.254 58.9051 222.833 58.4632 223.457 58.5547C224.081 58.6308 224.522 59.1944 224.446 59.8342Z" fill="#1993D3"/>
<path d="M147.007 127.46L144.481 127.581C140.727 120.068 148.163 110.35 144.237 104.105C141.801 100.281 136.23 99.809 132.089 100.997C127.504 102.331 123.399 105.243 118.602 107.106C112.558 109.452 106.834 108.919 103.318 105.674C99.0249 101.729 99.2228 95.254 99.7404 90.7294C100.312 85.9475 101.156 80.7618 99.0249 76.7291C96.7414 72.4177 91.6723 70.5896 87.6686 70.3155C82.9039 69.9804 78.1391 71.3209 73.5265 72.6007C72.9176 72.7681 72.2935 72.4177 72.126 71.8085C71.9586 71.1991 72.3087 70.5744 72.9176 70.4068C77.7128 69.0662 82.6755 67.6648 87.8208 68.0304C93.7121 68.4417 98.7661 71.3514 101.05 75.6628C103.498 80.3163 102.64 85.6743 102.009 90.9885C101.278 97.387 102.176 101.531 104.855 103.998C108.235 107.106 113.745 106.543 117.779 104.974C122.448 103.171 126.509 100.239 131.45 98.8037C136.397 97.387 143.11 98.0572 146.17 102.886C150.996 110.548 142.571 120.668 147.007 127.46Z" fill="#1993D3"/>
</svg>
