<svg width="360" height="414" viewBox="0 0 360 414" fill="none" xmlns="http://www.w3.org/2000/svg">
<path d="M140.558 271.419C145.743 277.032 151.595 275.73 153.062 265.903C155.225 251.074 153.157 235.696 147.384 221.887L196.669 46.8209C197.835 42.646 202.14 40.2279 206.297 41.4178L319.457 73.5708C323.594 74.7423 326.001 79.0685 324.835 83.2434C324.784 83.4251 266.24 291.383 266.13 291.765C265.528 293.881 264.87 294.429 263.046 295.563C258.284 298.494 250.365 304.583 243.471 311.507C240.91 314.111 241.765 314.047 236.025 312.414C235.846 312.363 140.897 285.32 140.708 285.267C141.066 280.657 140.99 276.029 140.558 271.419ZM201.596 92.7836C200.9 91.8012 199.64 91.3857 198.436 91.1587C196.232 90.7162 192.111 90.5199 190.369 91.9714C188.829 93.2535 188.665 95.7338 190.219 97.3362C190.933 98.0733 191.911 98.5077 192.851 98.9233C197.455 100.955 196.77 100.997 198.812 100.227C199.565 99.9624 200.185 99.4712 200.599 98.7909C201.162 97.8841 201.727 96.9396 202.009 95.9005C202.272 94.8614 202.215 93.6714 201.596 92.7836ZM302.139 133.457C303.117 133.267 304.038 132.701 304.602 131.87C305.166 131.038 305.354 129.962 305.11 128.998C304.809 127.883 303.982 127.014 303.117 126.278C301.362 124.756 297.705 122.373 295.482 123.142C294.467 123.501 293.734 124.427 293.358 125.447C292.981 126.448 292.906 127.543 292.831 128.62C292.756 129.792 293.245 130.982 294.072 131.813C294.782 132.49 294.52 132.25 299.074 133.23C300.089 133.438 301.123 133.645 302.139 133.457ZM276.904 168.632C277.92 168.953 279.537 170.068 280.627 169.803C281.755 169.52 283.26 167.839 284.087 167.064C289.172 162.274 294.05 152.896 295.67 146.643C297.388 139.738 296.141 138.182 292.906 133.457C292.305 132.568 291.684 131.699 291.026 130.868C290.424 130.132 289.465 129.414 289.333 128.469C288.368 122.056 288.139 117.92 285.535 110.579C284.341 107.178 283.394 106.381 280.214 104.912C267.553 99.0174 255.486 94.7067 242.55 91.1587C239.165 90.2331 235.762 89.3831 232.321 88.5898C224.702 86.8681 220.389 85.9725 215.36 89.5722C213.197 91.1398 211.524 93.3126 209.643 95.2017C207.519 97.3362 205.375 99.4523 203.344 101.681C203.175 101.889 201.689 101.814 201.37 101.852C199.504 102.097 197.246 102.733 195.239 103.741C191.742 105.46 189.636 107.878 188.451 111.524C185.649 120.03 184.851 129.401 185.762 137.121C185.837 137.934 186.007 138.973 186.928 139.256L226.21 151.819C231.248 153.424 235.913 155.521 240.914 157.127L276.904 168.632ZM163.499 267.188C193.094 277.666 225.936 286.626 240.613 289.706C246.141 290.859 253.343 289.593 255.656 283.51C256.841 280.412 257.423 277.068 257.386 273.762C257.311 266.489 254.378 265.167 247.947 263.278C194.403 247.557 191.739 246.817 179.896 243.328C175.678 242.093 171.077 240.745 167.654 243.782C163.8 247.182 162.051 254.587 159.964 259.253C158.066 263.493 158.735 265.471 163.499 267.188Z" fill="#1993D3"/>
<path d="M234.851 273.198C234.737 270.602 234.144 268.072 234.932 265.97C235.19 265.278 234.842 264.505 234.153 264.244C233.465 263.983 232.695 264.333 232.435 265.027C231.393 267.809 232.068 270.682 232.187 273.317C232.277 275.337 231.75 277.954 229.974 278.682C228.845 279.144 227.491 278.702 226.595 278.138C225.038 277.155 224.641 276.468 215.534 265.484C214.671 264.441 212.045 261.27 208.879 262.36C206.893 263.044 206.11 264.969 205.062 266.019C203.158 267.921 199.901 267.259 198.89 264.756C198.459 263.686 198.46 262.234 198.144 260.831C197.754 259.112 196.611 257.133 194.573 256.738C193.094 256.446 191.787 257.121 190.739 257.659C185.413 260.406 180.019 257.736 178.327 253.101C178.074 252.406 177.308 252.048 176.616 252.304C175.925 252.559 175.57 253.329 175.823 254.024C178.106 260.275 185.297 263.243 191.306 260.37C192.314 259.888 193.331 259.234 194.067 259.369C194.797 259.51 195.334 260.504 195.543 261.426C195.848 262.773 195.796 264.224 196.419 265.765C198.138 270.02 203.667 271.192 206.942 267.919C208.921 265.943 209.537 262.44 213.485 267.199C222.881 278.533 223.244 279.188 225.178 280.407C229.948 283.412 235.173 280.454 234.851 273.198Z" fill="#1993D3"/>
<path d="M61.2436 103.414C80.6764 99.7727 94.78 82.6927 94.78 62.8005C94.78 45.1047 83.5858 29.3846 66.9253 23.6825C66.2281 23.4435 65.8548 22.6829 66.0927 21.9825C66.3315 21.2821 67.0894 20.907 67.7849 21.146C83.0673 26.376 94.0079 39.5277 96.754 55.1139C113.015 59.7523 127.204 69.7209 136.728 83.2178C137.429 84.2122 138.187 85.3488 138.899 86.597C148.493 85.9086 158.777 90.363 164.92 98.8631L191.135 6.67233C192.498 1.81377 197.56 -1.02461 202.409 0.343984L344.168 40.6378C349.015 42.0047 351.85 47.0848 350.488 51.9652L307.469 204.738C312.251 205.622 314.897 209.811 316.781 214.292L356.608 72.8483C357.984 67.9531 357.385 62.8058 354.921 58.3528C354.563 57.7065 354.795 56.8909 355.439 56.5315C356.083 56.1695 356.895 56.4033 357.252 57.0514C360.06 62.1263 360.744 67.9949 359.175 73.5766L318.379 218.46C323.027 230.996 326.495 244.031 328.665 257.264C330.866 270.69 330.571 283.605 327.734 297.912C320.913 332.321 299.395 368.694 272.916 390.575C252.789 407.204 224.802 421.601 219.618 458.846C219.525 459.516 218.954 460 218.299 460C217.486 460 216.864 459.28 216.977 458.474C222.359 419.788 251.768 404.579 271.221 388.506C297.253 366.993 318.41 331.228 325.119 297.389C327.928 283.217 328.21 270.977 326.033 257.701C323.735 243.687 319.982 229.892 314.876 216.698C313.329 212.696 311.415 208.826 307.928 207.61C304.28 206.338 300.023 208.764 297.899 212.007C295.029 216.388 294.537 222.614 293.751 231.836C292.241 249.59 292.128 268.787 291.925 286.78C291.917 287.439 291.434 287.995 290.785 288.091C249.095 294.232 219.068 332.68 223.568 375.172C223.646 375.908 223.116 376.569 222.384 376.646C221.635 376.721 220.995 376.191 220.917 375.457C219.359 360.751 221.922 345.749 228.032 332.357L128.326 304.012C128.796 308.947 128.743 313.928 128 318.973C127.469 322.643 126.109 325.09 124.059 326.144C123.189 330.836 122.307 334.421 121.955 338.354C120.158 359.163 118.445 377.916 115.684 396.695C115.586 397.361 115.017 397.839 114.366 397.839C113.548 397.839 112.927 397.111 113.045 396.304C115.796 377.599 117.504 358.888 119.298 338.118C119.621 334.518 120.336 331.338 121.24 326.674C118.177 326.349 115.867 323.341 115.036 322.24C107.373 312.19 100.536 301.394 94.7157 290.154L94.7148 290.153C87.1453 275.488 89.939 269.381 101.676 259.616C100.442 257.404 99.1817 255.061 97.8379 252.468L97.8361 252.465C88.0619 233.508 91.3929 225.81 105.57 213.466C103.978 203.89 108.233 197.829 115.437 191.222C124.156 183.175 133.924 176.305 144.47 170.781L145.694 166.477C145.474 166.553 145.248 166.576 145.006 166.527C135.065 164.559 126.233 157.173 122.503 147.708C121.146 144.259 121.186 141.487 122.624 139.468C124.045 137.471 126.439 136.789 128.815 136.348C136.672 134.894 144.698 134.452 152.662 135.035C153.397 135.089 153.949 135.73 153.895 136.469C153.842 137.207 153.199 137.76 152.468 137.708C144.731 137.139 136.931 137.57 129.298 138.984C127.188 139.375 125.615 139.871 124.793 141.027C121.938 145.035 130.241 160.873 145.522 163.898C145.842 163.961 146.099 164.146 146.289 164.383L163.956 102.256C158.979 93.9418 149.629 89.0071 140.228 89.22C141.413 91.9231 142.165 94.9735 141.716 98.1398C140.891 103.964 134.579 109.004 129.131 106.535C122.228 103.405 121.863 89.7586 136.018 86.9739C128.392 74.6166 114.291 63.2267 97.1597 58.0361C99.6707 81.2756 83.892 101.896 61.7333 106.048C61.0163 106.183 60.3138 105.71 60.1774 104.977C60.0429 104.249 60.5195 103.55 61.2436 103.414ZM243.941 20.5245C243.885 21.299 244.468 21.9792 245.257 22.0359C248.322 22.2435 251.293 23.9813 253.005 26.5507C253.802 27.7548 254.34 29.0484 255.393 30.2534C256.54 31.5572 258.495 32.7282 260.564 32.1235C263.461 31.3087 263.978 27.9965 265.453 26.6264C266.299 25.8704 267.747 25.7008 269.044 26.173C272.77 27.5763 274.479 32.8629 277.506 36.2422C281.71 40.9127 287.887 41.2542 291.063 35.4296C291.947 33.8052 292.398 32.0668 292.831 30.3858C293.019 29.6303 292.567 28.8555 291.815 28.6479C291.082 28.4588 290.292 28.9122 290.105 29.6681C289.391 32.4037 288.499 35.7847 285.761 36.733C283.655 37.4699 281.135 36.0531 279.593 34.3337C276.677 31.0729 274.843 25.2837 270.022 23.5284C267.728 22.6779 265.208 23.0561 263.573 24.5103C261.894 26.0511 261.115 29.0189 259.793 29.4034C259.021 29.6303 258.101 29.0445 257.517 28.3831C256.622 27.3462 256.086 26.0256 255.336 24.9637C253.155 21.6955 249.375 19.4854 245.446 19.2022C244.656 19.1455 243.998 19.7308 243.941 20.5245ZM289.481 268.626L284.422 286.575C286.029 286.21 287.643 285.877 289.271 285.613C289.336 279.818 289.39 274.344 289.481 268.626ZM97.0834 288.919C102.832 300.022 109.584 310.684 117.156 320.615C119.116 323.207 120.785 324.314 122.286 324.005C122.348 323.973 122.412 323.947 122.478 323.926C124.402 323.312 125.11 320.318 125.361 318.583C126.597 310.195 125.83 301.06 123.861 294.109C123.583 293.165 115.741 283.674 105.853 266.92C104.895 265.349 103.607 263.248 102.927 262.044C92.3561 270.967 90.2891 275.756 97.0834 288.919ZM100.205 251.232C108.371 266.982 116.803 279.926 127.029 293.619C132.849 301.313 137.563 299.152 138.789 290.674C139.585 285.441 139.875 278.817 139.271 271.992C133.405 265.422 110.151 231.011 106.198 216.461C93.9834 227.259 91.2338 233.834 100.205 251.232ZM117.239 193.198C110.537 199.344 106.531 204.827 108.3 213.727C108.524 214.402 108.67 217.574 113.14 226.238C124.24 247.72 138.37 267.127 141.535 270.508C146.581 275.969 150.599 273.366 151.742 265.709C155.084 242.807 147.958 219.614 135.267 203.681C134.994 203.338 134.905 202.881 135.031 202.459L143.404 174.38C133.942 179.574 125.152 185.894 117.239 193.198ZM146.875 172.077L137.784 202.563C151.458 220.419 157.647 243.709 154.381 266.102C152.832 276.467 146.61 277.69 142.127 274.593C142.475 280.783 142.082 286.777 141.427 291.07C140.602 296.777 138.329 300.182 134.856 300.916C132.084 301.506 129.584 300.153 127.499 298.188C127.682 299.168 127.859 300.149 127.997 301.133L229.187 329.9C239.808 308.503 259.186 293.244 281.451 287.282L289.71 257.979C290.011 246.949 290.611 235.104 291.819 224.096C292.643 216.587 294.192 209.125 301.02 205.77C302.187 205.187 303.437 204.789 304.723 204.643L347.921 51.2385C348.885 47.7835 346.879 44.1853 343.445 43.2171L310.391 33.8216L303.211 45.5366C302.12 47.3122 299.977 48.1244 297.983 47.5391L235.667 28.6479C233.674 28.0433 232.339 26.173 232.434 24.0758L232.883 11.7906L201.686 2.9233C198.252 1.95769 194.667 3.96218 193.701 7.40417L166.835 101.886C170.879 109.242 171.744 118.24 168.996 126.232C168.805 126.787 168.289 127.135 167.736 127.135C166.818 127.135 166.177 126.225 166.475 125.358C168.627 119.098 168.278 111.931 165.73 105.77C165.237 107.505 168.834 94.8537 146.875 172.077ZM130.227 104.092C131.642 104.733 133.297 104.599 134.888 103.72C138.921 101.49 140.835 96.5058 137.393 89.4529C129.284 90.6644 125.556 101.973 130.227 104.092Z" fill="#151515"/>
<path d="M166.862 316.743C178.671 332.005 183.281 352.396 179.19 371.287C179.055 371.914 178.502 372.343 177.888 372.343C177.034 372.343 176.404 371.55 176.584 370.718C180.508 352.593 176.087 333.031 164.755 318.388C164.304 317.804 164.409 316.962 164.99 316.508C165.574 316.053 166.408 316.158 166.862 316.743Z" fill="#151515"/>
<path d="M294.284 130.592C294.455 130.918 294.662 131.473 294.352 131.671C293.709 132.082 293.067 132.492 292.425 132.903L290.878 131.238C292.939 129.944 293.56 129.208 294.284 130.592Z" fill="#151515"/>
<path d="M197.837 99.824C197.977 99.668 198.163 99.5629 198.349 99.4677C199.728 98.7623 199.806 99.6873 200.758 101.972L198.538 102.433C197.551 100.008 197.507 100.194 197.837 99.824Z" fill="#151515"/>
<path d="M286.7 147.923C285.601 148.099 284.425 147.914 283.462 147.353C227.02 129.312 262.389 140.694 198.402 120.24C196.341 119.581 194.245 118.964 193.314 116.716C192.575 114.934 193.405 113.677 193.985 112.069C194.63 110.276 195.976 108.641 197.856 108.561C197.959 108.539 198.048 108.485 198.157 108.48C198.891 108.445 199.602 108.707 200.291 108.965C203.539 110.184 198.514 108.528 236.842 120.78C286.193 136.555 282.608 135.43 283.093 135.517C284.796 135.823 286.498 136.314 288.157 136.998C289.445 137.529 290.671 138.196 291.027 139.548C292.613 142.753 290.27 147.352 286.7 147.923Z" fill="#151515"/>
<path d="M265.058 161.831C263.501 162.038 266.484 162.882 213.197 145.774C210.377 144.885 206.973 144.357 204.679 142.411C202.723 140.748 201.67 138.009 202.122 135.459C202.517 133.154 203.532 133.74 205.055 134.231C206.522 134.703 208.007 135.175 209.473 135.648C219.438 138.825 268.989 154.669 269.175 154.728C270.586 155.182 271.922 155.295 271.282 157.09C270.626 158.849 267.738 161.494 265.058 161.831ZM250.579 151.838L220.737 142.298C219.985 142.071 219.214 142.486 218.97 143.223C218.744 143.979 219.139 144.772 219.891 144.999L249.733 154.539C250.398 154.79 251.257 154.414 251.5 153.632C251.745 152.876 251.331 152.083 250.579 151.838Z" fill="#151515"/>
<path d="M194.522 129.338C195.353 129.462 196.213 129.59 197.079 129.872C199.718 130.734 201.047 132.67 201.184 135.357C201.741 146.161 188.192 141.35 191.32 131.22C191.809 129.478 192.712 129.063 194.522 129.338ZM197.522 138.738C198.315 138.489 198.595 136.931 198.521 135.495C198.38 132.714 196.587 132.358 193.885 131.953C193.846 132.133 193.453 133.149 193.553 134.528C193.78 137.683 196.214 139.136 197.522 138.738Z" fill="#151515"/>
<path d="M273.831 156.062L273.833 156.061C275.54 155.034 277.803 155.777 279.546 156.43L279.891 156.557C280.568 156.805 281.827 157.265 282.347 158.508C282.75 159.467 282.591 160.555 281.872 161.743C278.606 167.154 272.01 166.993 270.526 164.115C269.606 162.334 270.76 159.651 271.939 158.068C271.939 158.068 273.043 156.535 273.831 156.062ZM272.894 162.882C272.959 163.009 273.221 163.199 273.74 163.316C276.195 163.864 278.498 162.167 279.593 160.353C279.939 159.78 279.891 159.553 279.889 159.55C279.802 159.337 278.798 159.021 278.619 158.942C277.643 158.578 276.203 158.009 275.228 158.348C275.053 158.526 275.087 158.29 274.231 159.46C274.119 159.639 273.367 160.483 272.962 161.936C272.786 162.568 272.856 162.808 272.894 162.882Z" fill="#151515"/>
<path d="M281.075 124.739C263.326 117.095 238.813 108.084 219.748 104.281C217.791 103.891 214.658 103.173 212.648 102.948C212.09 102.885 211.274 103.062 210.776 102.83C212.89 100.315 215.3 97.9955 217.551 95.5997C220.213 92.7658 223.631 91.1129 227.544 92.0692C242.405 95.7003 257.055 100.28 271.369 105.776C279.211 108.787 280.009 110.514 281.669 117.157C282.361 119.923 282.73 122.771 282.76 125.623C282.757 125.15 281.387 124.874 281.075 124.739Z" fill="#151515"/>
<path d="M176.418 147.158L176.711 147.257C176.535 144.907 176.714 142.534 177.32 140.255C178.772 134.809 180.928 129.377 183.849 124.16C184.426 123.13 185.29 122.53 186.19 121.783C185.952 121.981 185.937 123.312 185.888 123.639C184.775 131.061 185.141 132.222 185.958 137.361C186.225 139.039 186.58 139.517 188.375 140.093C191.91 141.227 195.445 142.361 198.98 143.495C198.852 144.687 198.692 145.877 198.522 147.054C198.177 149.453 197.179 151.749 195.686 153.652L265.514 177.185C264.862 172.612 266.365 169.67 268.547 165.74C272.084 166.867 275.621 167.994 279.158 169.12C280.952 169.691 281.519 169.509 282.703 168.293C286.385 164.513 290.169 160.575 291.99 155.612C291.863 155.96 292.076 156.646 292.091 157.029C292.179 159.323 291.066 167.585 288.088 175.671C287.049 178.488 285.352 181.022 283.256 183.164L284.679 183.644C286.104 184.125 285.759 186.253 284.254 186.253C283.835 186.253 288.71 187.802 175.57 149.698C174.871 149.463 174.496 148.704 174.73 148.003C174.964 147.3 175.719 146.922 176.418 147.158Z" fill="#151515"/>
<path d="M230.175 202.983C230.495 203.649 230.217 204.45 229.553 204.771C228.892 205.092 228.093 204.814 227.773 204.146L222.708 193.603C221.503 191.101 222.359 189.482 224.985 188.621L235.524 185.143C236.219 184.909 236.977 185.296 237.207 185.998C237.437 186.701 237.056 187.458 236.356 187.688C227.809 190.601 225.06 191.259 224.827 191.647C224.784 191.925 225.254 192.677 230.175 202.983Z" fill="#151515"/>
<path d="M217.869 196.324C218.342 197.222 217.685 198.291 216.691 198.291C216.214 198.291 215.751 198.032 215.512 197.578L209.736 186.618C208.392 184.075 208.944 182.147 211.687 181.438L220.371 179.186C221.084 179.001 221.811 179.431 221.995 180.148C222.179 180.864 221.75 181.595 221.038 181.78C215.418 183.238 211.885 184.104 211.704 184.237C211.573 184.747 213.818 188.409 217.869 196.324Z" fill="#151515"/>
<path d="M181.851 210.031L266.409 236.012C267.113 236.228 267.51 236.978 267.295 237.685C267.078 238.4 266.323 238.79 265.63 238.575L181.072 212.594C180.368 212.378 179.971 211.628 180.186 210.921C180.401 210.212 181.153 209.814 181.851 210.031Z" fill="#151515"/>
<path d="M242.308 242.968L262.196 249.293C263.853 249.82 263.102 252.39 261.39 251.847L241.503 245.522C240.801 245.299 240.412 244.546 240.634 243.84C240.857 243.135 241.603 242.744 242.308 242.968Z" fill="#151515"/>
<path d="M42.4398 20.1465C18.9912 20.1465 0 39.2454 0 62.8027C0 86.36 18.9912 105.459 42.4398 105.459C65.8875 105.459 84.8989 86.36 84.8989 62.8027C84.8989 39.2454 65.8875 20.1465 42.4398 20.1465ZM65.7379 42.2114L40.1453 76.461C37.2223 80.354 33.9988 80.7011 30.4809 77.4056L21.3416 68.7727C20.2141 67.6958 20.1572 65.9012 21.2286 64.7674C22.3011 63.6149 24.0685 63.5587 25.2153 64.6351C30.5705 69.689 33.9603 72.9443 34.9743 73.8354C35.3828 73.425 43.7067 62.2174 61.2243 38.8109C62.1644 37.5642 63.9328 37.2994 65.1733 38.244C66.4145 39.1885 66.6781 40.9647 65.7379 42.2114Z" fill="#58C57E"/>
</svg>
