<svg width="592" height="592" viewBox="0 0 592 592" fill="none" xmlns="http://www.w3.org/2000/svg">
<path d="M388.585 471.615H402.994V469.107C402.994 463.066 407.91 458.15 413.952 458.15H444.817C450.86 458.15 455.775 463.066 455.775 469.107V471.615H467.992C473.399 471.615 477.819 476.035 477.819 481.442V526.335C477.819 531.782 473.399 536.182 467.992 536.182H388.585C383.139 536.182 378.738 531.782 378.738 526.335V481.442C378.738 476.035 383.139 471.615 388.585 471.615ZM452.815 469.107C452.815 464.698 449.227 461.11 444.817 461.11H413.952C409.542 461.11 405.954 464.698 405.954 469.107V470.148H452.815V469.107ZM386.197 511.002C387.717 513.173 390.637 514.318 394.051 514.12C396.583 513.925 399.17 513.164 401.273 513.055C403.746 512.922 406.005 513.799 408.733 514.732C410.69 515.373 412.322 517.82 414.771 519.152C418.323 521.106 422.704 521.343 426.473 519.764C428.689 518.797 431.193 516.912 433.123 516.311C439.779 514.225 446.562 520.911 453.665 522.468C456.089 523.013 458.886 522.78 460.434 520.83C464.269 515.949 456.292 507.055 451.436 503.405C450.784 502.931 449.857 503.07 449.383 503.701C448.89 504.352 449.028 505.28 449.66 505.773C452.758 508.102 455.441 511.101 457.395 514.436C459.592 518.13 458.571 520.489 454.317 519.586C450.73 518.802 447.699 516.785 444.253 515.206C433.205 510.075 429.686 515.197 425.309 517.021C422.428 518.245 418.915 518.067 416.172 516.548C414.227 515.478 412.443 512.866 409.66 511.95C406.823 510.955 404.262 509.918 401.096 510.095C398.288 510.26 396.329 510.983 393.854 511.16C391.525 511.318 389.552 510.628 388.624 509.325C388.171 508.654 387.243 508.477 386.572 508.95C385.901 509.424 385.743 510.331 386.197 511.002Z" fill="#1993D3"/>
<path d="M160.073 323.595C176.627 309.182 196.339 295.93 216.846 286.062L218.227 285.095C216.273 283.181 213.826 280.695 213.136 278.149C211.853 280.655 209.288 281.504 206.782 282.333C198.446 285.093 194.458 287.798 192.988 285.135C157.481 304.281 169.727 297.677 167.078 299.106L160.073 323.595Z" fill="#1993D3"/>
<path d="M506.716 170.113L504.943 240.339L345.147 250.228C345.147 250.228 412.615 170.98 506.716 170.113ZM404.066 226.235C411.727 235.549 425.888 234.925 432.925 225.624C436.202 221.316 437.766 215.425 442.184 213.903C446.084 212.544 450.28 215.42 451.915 216.74C455.018 219.233 457.603 222.457 461.33 224.6C465.152 226.786 470.825 227.495 474.312 223.891C476.4 221.743 476.971 218.631 477.405 216.366L482.546 188.728C482.703 187.94 482.172 187.172 481.364 187.015C480.557 186.857 479.788 187.389 479.65 188.197C473.997 218.052 474.253 219.714 472.185 221.842C469.919 224.186 465.743 223.713 462.808 222.039C459.596 220.204 456.966 217.021 453.747 214.435C449.511 211.027 444.941 209.806 441.218 211.106C435.504 213.095 433.811 219.517 430.561 223.851C424.58 231.742 412.723 232.045 406.351 224.363C405.839 223.733 404.894 223.634 404.264 224.166C403.633 224.679 403.554 225.604 404.066 226.235Z" fill="#1993D3"/>
<path d="M79.2848 421.867C81.6528 417.999 88.4213 418.868 90.4735 414.862C92.2693 411.448 89.1909 407.58 86.3296 404.975C79.1106 398.404 80.6912 393.713 86.9216 391.636C94.9926 388.912 96.7094 381.868 95.5254 373.757C87.5926 318.76 79.6795 261.849 118.85 216.167C119.23 215.711 134.059 222.864 145.571 228.487C146.085 227.12 146.722 226.017 147.56 224.884C145.433 222.012 128.127 197.95 126.513 173.921C122.746 182.88 122.709 184.436 122.617 189.669C122.542 193.928 122.463 198.329 119.636 201.95C117.428 204.78 113.557 206.499 112.96 209.468C112.748 210.516 113.22 211.903 114.168 212.194C114.951 212.433 115.39 213.262 115.149 214.042C114.306 216.808 109.082 213.697 110.058 208.882C110.617 206.107 112.725 204.259 114.702 202.613C115.675 201.802 116.597 201.035 117.304 200.129C120.429 196.127 119.29 190.272 119.882 184.997C120.51 179.378 123.506 173.904 125.348 168.883C128.967 158.995 135.115 150.067 142.213 144.384C151.021 137.339 165.383 135.375 173.159 134.832C173.407 134.816 173.637 134.879 173.851 134.974C174.279 133.874 174.815 132.818 175.863 130.647C174.423 130.671 171.857 128.853 170.734 128.166C162.294 123.007 156.495 113.192 156.74 103.05C152.842 103.074 149.852 99.1346 149.504 95.2521C149.157 91.3696 150.74 87.6023 152.314 84.0361C158.888 69.1367 166.664 53.1586 182.214 46.1974C198.378 38.9603 213.844 47.0957 212.831 55.3177C216.399 55.823 219.627 58.0645 221.507 61.1247C222.156 61.0098 222.889 61.0694 223.727 61.3634C230.595 63.7736 233.207 78.6685 230.652 86.6129C230.375 87.4749 228.645 91.9103 228.233 94.1978C237.501 91.3573 244.852 89.0621 258.533 87.7761C264.012 87.2662 269.737 87.0489 275.574 87.1172C276.104 86.286 276.926 85.6056 277.932 85.2497C281.947 83.8806 284.471 87.22 288.536 85.7527C290.543 85.016 290.449 82.9221 296.847 83.7639C303.129 84.5275 307.861 85.4178 311.728 90.4068C360.9 98.3493 407.331 120.217 439.185 150.464C439.777 151.027 439.801 151.963 439.239 152.557C438.676 153.15 437.738 153.173 437.146 152.611C406.303 123.322 361.561 102.019 313.976 93.8107C314.678 95.1113 315.239 96.3622 315.641 97.3364C316.268 98.8087 316.847 100.412 316.823 102.152C316.766 106.493 312.834 108.78 309.865 106.864C309.076 107.497 307.959 107.904 306.764 107.904C303.475 107.904 301.732 105.358 294.969 98.034C289.144 91.7023 284.988 94.7847 279.394 93.6113C277.611 93.2225 275.55 92.0718 275.06 90.075C260.931 89.9459 246.559 91.5122 233.153 95.7831C230.47 96.6337 227.536 97.4299 224.964 98.4033C221.636 100.968 221.055 106.113 222.295 109.905C223.724 114.274 226.952 117.821 230.713 121.677C261.902 153.673 296.167 183.038 332.555 208.961C333.731 209.802 333.125 211.647 331.696 211.647C331.398 211.647 331.098 211.558 330.838 211.373C294.305 185.346 259.905 155.864 228.593 123.743C224.57 119.619 221.108 115.8 219.482 110.826C218.505 107.839 218.454 104.289 219.536 101.185C213.564 105.509 211.865 114.084 214.729 120.968C215.764 123.44 217.368 125.694 219.375 127.486C227.629 134.875 217.697 126.071 310.562 206.207C315.863 210.807 322.817 212.526 328.919 213.775C335.55 215.135 341.472 217.414 347.874 219.142C350.886 199.804 369.515 187.432 388.113 191.538C388.562 191.637 388.9 191.938 389.094 192.317C401.162 185.063 414.069 178.202 427.584 172.705C449.873 163.636 477.253 159.494 506.779 160.755C507.595 160.789 508.23 161.479 508.195 162.295C508.161 163.112 507.454 163.775 506.654 163.711C477.551 162.491 450.599 166.538 428.7 175.445C399.32 187.398 374.319 204.926 350.47 221.541C350.217 222.164 349.728 222.474 349.129 222.475C329.651 236.054 309.822 250.098 291.162 265.1C343.736 260.475 393.207 258.666 450.398 256.676V237.002C450.398 236.185 451.061 235.522 451.878 235.522C452.695 235.522 453.358 236.185 453.358 237.002V256.568C494.579 255.026 491.767 254.969 498.421 255.061C508.547 255.277 510.52 253.891 511.603 255.041C512.46 256.041 511.756 257.528 510.498 257.528C503.562 257.887 504.45 258.152 498.362 258.021C491.764 257.927 494.9 257.979 453.358 259.532V432.645C453.358 433.462 452.695 434.125 451.878 434.125C451.061 434.125 450.398 433.462 450.398 432.645V259.64C395.604 261.547 342.525 263.469 289.524 268.204C275.375 269.466 260.891 272.505 246.466 277.241C246.601 277.66 246.778 278.152 246.91 278.791C247.405 281.186 246.483 284.108 244.196 285.214C243.719 285.436 242.501 285.72 241.69 285.845C239.416 286.122 239.641 286.379 239.226 288.754C238.305 294.436 231.915 294.367 232.112 294.302C227.928 294.297 222.475 290.879 219.313 288.154C197.508 298.517 177.147 312.409 160.33 327.305C141.74 343.687 130.674 365.501 126.462 393.925C127.495 393.708 136.858 394.5 148.48 391.951C149.391 391.746 150.277 392.445 150.277 393.396V416.629C150.277 417.342 149.769 417.953 149.069 418.084C143.186 419.185 129.471 421.055 124.232 418.131C123.566 434.538 124.687 442.148 124.77 450.086C124.77 454.143 124.76 459.906 126.645 463.504C129.171 468.359 134.065 472.286 140.103 474.299C141.563 474.733 153.245 476.548 157.054 476.666C156.008 467.254 155.376 458.788 155.12 450.855C154.646 435.996 155.515 422.874 157.745 410.718C164.809 371.883 196.915 339.461 237.586 330.048C298.938 315.89 355.75 373.563 363.8 434.733C363.82 434.832 363.839 434.911 363.879 435.128C366.03 451.586 365.714 470.589 362.892 493.144C366.069 493.104 371.614 493.065 378.738 493.025V495.986C370.056 496.025 363.741 496.084 361.235 496.124C360.244 496.124 359.622 495.258 359.735 494.466C362.072 476.489 362.795 460.838 362 447.014C357.51 503.92 313.326 548.604 259.439 548.604C209.88 548.604 169.347 510.952 159.055 462.264C158.885 461.463 158.713 460.68 158.542 459.886C159.727 478.068 160.844 478.042 159.56 479.133C157.587 480.712 139.314 477.16 139.156 477.101C131.762 474.636 124.75 468.962 122.812 461.644L121.85 464.373C119.529 464.436 117.219 464.496 114.902 464.557C115.628 465.246 115.267 465.59 116.182 471.451C116.263 472.046 115.973 472.603 115.493 472.9C116.148 472.857 116.83 472.936 117.498 473.262C119.643 474.299 119.961 476.746 120.196 478.556C120.364 479.857 120.701 481.139 121.179 482.372C121.85 482.104 122.625 481.892 123.374 481.874C124.748 481.882 125.997 482.601 126.556 483.707C127.515 485.606 126.032 487.83 124.455 487.702C124.738 488.022 125.028 488.337 125.333 488.636C126.893 487.716 128.51 486.844 130.042 487.054C132.703 487.426 134.125 490.59 132.275 492.851C138.058 495.006 143.281 495.694 145.539 501.448C146.817 504.699 145.871 507.869 143.129 509.522C140.576 511.06 137.878 511.195 135.269 511.326C129.112 511.589 123.374 510.697 117.506 507.564C115.887 506.701 114.334 505.695 112.829 504.724C103.46 498.668 102.865 500.323 96.2119 499.291C86.9068 497.853 84.506 490.588 88.8794 482.248C89.2282 481.578 89.5038 481.05 89.6117 480.417C89.7099 479.843 90.1339 479.381 90.6985 479.234C92.4135 478.779 92.7907 481.192 94.7396 482.732C98.7999 485.931 104.331 485.296 107.844 481.154C108.705 480.133 107.939 477.657 109.678 475.781C110.716 474.662 113.155 473.417 114.426 473.074C113.826 472.952 113.336 472.485 113.249 471.844L112.438 465.82C112.375 465.354 112.552 464.926 112.855 464.612C93.9893 465.108 95.1927 465.096 94.1797 465.082C94.2048 465.582 93.6654 471.582 93.2693 476.507C93.2057 477.282 92.5582 477.866 91.797 477.866C90.9319 477.866 90.2493 477.127 90.3208 476.265C91.4296 463.433 91.1594 465.344 91.336 464.744C80.8091 462.167 86.9009 444.996 85.7179 437.674C85.1851 434.339 82.4619 432.464 80.4885 429.78C78.8507 427.471 77.8246 424.275 79.2848 421.867ZM280.01 90.7168C284.517 91.662 290.456 88.7585 297.144 96.026C304.012 103.459 304.699 104.423 306.179 104.867C306.949 105.087 308.166 104.792 308.327 104.1C308.678 102.607 310.783 102.569 311.194 104.041C311.258 104.27 311.494 104.403 311.629 104.461C312.878 105.007 313.844 103.582 313.863 102.114C313.895 99.6957 311.232 94.5984 309.746 92.6324C306.488 88.0697 302.066 87.3806 296.477 86.7008C291.168 86.0001 292.58 87.4222 289.548 88.5335C284.568 90.3394 281.478 87.1591 278.903 88.0459C278.428 88.2136 278.028 88.5951 277.925 88.9902C277.691 89.8526 279.125 90.5246 280.01 90.7168ZM259.439 517.539C300.175 517.539 333.191 481.687 333.191 437.464C333.191 393.24 300.175 357.389 259.439 357.389C218.722 357.389 185.707 393.24 185.707 437.464C185.707 481.687 218.722 517.539 259.439 517.539ZM123.821 484.956C123.449 484.722 122.919 484.871 122.507 485.027C122.707 485.361 122.905 485.695 123.126 486.015C123.192 485.581 123.433 485.185 123.821 484.956ZM129.853 491.119C130.053 491.003 130.192 490.704 130.148 490.475C130.104 490.246 129.863 490.018 129.635 489.987C129.058 489.902 128.058 490.551 127.85 490.66C128.856 491.33 128.265 490.993 129.375 491.574C129.498 491.394 129.651 491.233 129.853 491.119ZM111.311 479.633C111.191 480.668 111.041 481.955 110.102 483.065C104.77 489.371 95.8732 488.949 91.4867 483.651C89.8598 486.767 88.8026 490.757 90.9028 493.545C93.6552 497.194 99.7386 496.228 104.427 497.314C114.193 499.586 118.886 509.235 134.637 508.395C137.162 508.268 139.545 508.225 141.601 506.986C143.742 505.695 143.141 503.44 142.784 502.531C140.374 496.39 132.024 497.681 125.106 492.354C122.672 494.115 122.776 494.556 121.869 494.556C120.543 494.556 119.877 492.921 120.855 491.999C121.493 491.399 122.17 490.846 122.864 490.317C121.745 489.154 120.766 487.867 119.944 486.484C116.736 488.779 117.008 490.172 115.587 490.172C114.39 490.172 113.673 488.801 114.396 487.816C115.549 486.248 116.982 484.897 118.593 483.808C116.119 477.814 118.214 474.197 113.667 476.59C111.533 477.721 111.503 477.952 111.311 479.633ZM223.618 287.744C227.144 290.207 232.885 293.176 235.633 289.867C235.638 289.861 235.642 289.854 235.648 289.847C236.836 288.393 236 286.05 237.763 284.286C239.98 282.07 243.09 283.857 243.92 281.22C244.244 280.184 244.027 279.289 243.688 278.255C243.041 276.338 241.643 273.814 240.424 272.312C235.784 266.582 228.989 264.054 222.699 265.711C219.604 266.527 215.704 268.762 213.05 270.529C210.082 272.504 206.018 275.21 202.36 271.281C199.816 268.547 198.817 265.126 197.063 262.289C191.707 253.626 185.665 242.721 181.392 234.045C175.351 236.792 170.717 240.058 166.267 245.276C195.255 285.252 193.313 282.246 193.992 283.807C194.372 284.686 194.401 284.687 194.876 284.738C196.295 284.893 199.31 283.232 206.329 280.93C208.625 280.176 210.793 279.463 211.815 277.472C212.438 276.261 214.199 276.469 214.557 277.748C215.405 280.784 220.851 285.819 223.618 287.744ZM140.142 342.657C140.182 343.447 140.833 344.078 141.622 344.078H141.651C142.123 343.379 142.601 342.685 143.091 341.999C142.207 319.408 144.828 296.919 150.877 275.13C151.114 274.36 150.641 273.532 149.851 273.315C149.062 273.097 148.253 273.551 148.036 274.341C141.839 296.6 139.195 319.589 140.142 342.657ZM155.331 247.362C155.426 248.952 154.995 250.173 154.918 251.478C154.871 252.26 155.064 253.226 155.628 253.509C156.016 253.717 156.718 253.519 157.244 253.062C158.93 251.56 160.752 245.362 168.866 238.447C176.314 232.061 180.731 231.696 183.022 229.708C183.743 229.081 184.509 227.977 184.297 226.929C184.108 226.017 183.272 225.272 182.302 224.41C179.888 222.257 178.947 221.076 178.286 215.833L178.251 215.549C178.014 213.713 177.658 211.651 176.425 210.42C175.862 209.855 174.897 209.572 174.147 209.675C172.817 210.6 172.573 211.043 171.833 211.03C169.989 212.234 178.512 206.669 153.799 222.804C151.442 224.628 149.295 226.874 148.281 229.663C144.594 239.185 154.869 240.066 155.331 247.362ZM201.405 128.73C194.322 128.678 188.25 126.469 183.129 122.192C176.545 136.8 174.807 137.222 176.983 141.127C178.359 143.598 180.994 145.542 184.815 146.911C187.815 147.984 190.263 148.219 192.297 147.631C196.358 146.456 196.16 142.179 197.789 137.998L201.405 128.73ZM226.866 94.4306C226.849 94.5004 226.83 94.568 226.813 94.6377C226.889 94.6135 226.963 94.5884 227.039 94.5644C226.982 94.5189 226.922 94.4766 226.866 94.4306ZM223.482 95.7966C223.806 94.592 224.087 93.3554 224.351 92.0956C220.714 88.2583 218.012 83.2256 217.397 77.5658C211.75 82.901 207.792 87.3849 200.737 89.0699C193.554 90.7854 185.626 89.2787 179.552 84.981C179.408 84.3535 179.28 83.685 179.15 83.0077C177.894 83.7313 176.554 82.4694 177.076 81.251C177.094 80.7712 176.066 78.4649 174.305 77.1463C169.13 73.1715 164.228 84.6539 173.236 89.5664C173.923 89.9402 174.2 90.7843 173.869 91.4915C172.8 93.7771 173.647 98.2922 174.101 100.715C176.385 112.738 185.19 124.107 198.132 125.562C205.495 126.43 208.361 124.996 211.662 121.248C209.766 116.068 210.018 110.439 212.396 105.293C214.914 99.8628 219.535 97.3422 223.482 95.7966ZM212.992 124.152C209.975 127.265 207.519 128.232 204.206 128.588C204.602 129.591 204.006 129.824 201.416 136.844C210.672 136.445 219.825 137.93 228.74 139.619C217.17 129.653 215.206 128.155 212.992 124.152ZM328.324 216.673C326.633 216.327 324.877 215.94 323.104 215.475C317.023 221.407 317.682 231.193 324.45 236.271C331.416 231.272 338.406 226.349 345.36 221.495C338.655 219.571 333.997 217.841 328.324 216.673ZM386.005 194.188C370.26 191.556 355.02 201.307 351.255 217.387C362.738 209.392 372.994 202.174 386.005 194.188ZM286.196 265.585C286.284 265.34 286.413 265.108 286.63 264.931C295.914 257.375 305.512 250.083 315.22 242.966C305.343 234.57 303.806 220.441 310.88 210.197C309.214 209.038 310.851 210.363 282.317 185.735C272.212 191.967 260.64 189.61 249.2 186.909C244.102 185.711 238.831 184.469 233.595 184.238C232.778 184.204 232.145 183.512 232.18 182.695C232.218 181.878 232.938 181.197 233.724 181.282C249.443 181.974 265.915 191.509 279.952 183.693C240.085 149.28 249.666 157.518 233.269 143.497C233.07 143.46 231.551 143.173 231.749 143.211C221.478 141.228 210.859 139.178 200.287 139.84C198.848 144.163 198.398 150.907 189.964 150.907C182.807 150.907 172.689 145.111 173.185 137.798C165.715 138.335 152.18 140.203 144.063 146.697C138.213 151.379 133.037 158.437 129.529 166.417C127.424 189.736 145.236 216.472 149.299 222.227C149.497 222.097 152.322 220.233 152.124 220.364C154.771 218.306 163.991 212.542 163.793 212.668L169.091 209.165L149.259 156.59C148.97 155.825 149.356 154.972 150.121 154.683C150.881 154.399 151.739 154.781 152.028 155.546L171.661 207.589C171.918 207.395 172.198 207.219 172.517 207.086L173.685 206.332C174.339 205.916 175.289 206.041 175.752 206.868C176.795 207.103 177.78 207.587 178.519 208.327C182.067 211.873 180.455 217.663 182.731 220.654C183.943 222.263 186.621 223.553 187.196 226.335C187.604 228.346 186.686 230.882 184.01 232.662C192.234 249.375 199.009 259.262 201.396 264.152C205.125 271.774 206.422 271.385 211.409 268.064C214.36 266.105 218.496 263.757 221.945 262.848C230.655 260.557 240.472 265.012 245.306 274.532C258.973 270.021 272.707 267.02 286.196 265.585ZM217.016 285.98C215.558 284.527 213.919 282.854 212.796 280.989C210.692 282.907 208.817 283.063 200.933 286.002C197.844 287.152 196.299 287.868 194.567 287.682C192.344 287.449 191.701 285.965 191.276 284.984C190.388 282.94 189.74 282.74 184.988 276.079L183.793 289.062L183.339 290.344L167.078 299.106L160.084 323.586C176.447 309.34 195.85 296.202 217.016 285.98ZM125.425 415.411C128.622 417.625 140.048 416.633 147.317 415.39V395.213C136.868 397.233 127.153 396.851 126.725 396.83C126.486 396.82 126.272 396.741 126.076 396.631C125.266 402.765 124.697 408.954 124.367 415.174C124.726 415.121 125.103 415.189 125.425 415.411ZM108.885 368.548C106.734 369.802 104.995 370.561 103.537 372.119C100.182 375.691 100.735 381.236 102.748 385.163C106.124 391.765 115.169 397.451 113.68 404.896C113.089 407.923 109.415 410.503 106.872 409.001C106.162 408.586 105.254 408.823 104.839 409.534C104.425 410.224 104.662 411.132 105.353 411.546C111.567 415.225 122.955 406.456 112.614 393.135C110.3 390.144 107.161 387.288 105.372 383.801C103.873 380.901 103.34 376.658 105.688 374.152C106.901 372.853 108.805 372.062 110.444 371.054C119.263 365.573 121.686 352.055 115.14 343.841C111.919 339.815 107.547 337.542 104.524 334.014C102.002 331.011 100.735 325.578 103.853 323.24C108.514 319.693 117.808 326.552 123.862 321.819C128.164 318.45 127.295 311.558 123.705 307.374C120.474 303.621 115.93 301.589 112.654 298.81C107.543 294.548 104.484 288.036 104.445 281.385C104.425 274.538 105.925 265.263 110.187 260.883C115.574 262.797 122.461 260.508 126.25 255.377C129.565 250.858 130.769 244.642 129.644 237.795C129.506 236.985 128.756 236.433 127.947 236.571C127.138 236.709 126.586 237.459 126.724 238.268C127.296 241.781 127.71 248.411 123.862 253.621C121.06 257.429 115.259 260.034 110.503 257.804C109.97 257.567 109.358 257.646 108.924 258.021C103.379 262.757 101.465 273.196 101.485 281.405C101.524 288.904 104.997 296.264 110.759 301.079C112.2 302.263 113.739 303.309 115.259 304.316C117.587 305.875 119.778 307.335 121.475 309.308C123.113 311.183 123.981 313.847 123.783 316.116C123.645 317.576 123.053 318.701 122.067 319.491C117.413 323.147 108.183 316.205 102.057 320.892C97.5252 324.398 98.6402 331.586 102.274 335.889C105.407 339.648 110.054 342.153 112.812 345.677C118.279 352.521 116.227 363.969 108.885 368.548Z" fill="#151515"/>
<path d="M259.449 383.45C288.032 383.45 311.286 408.645 311.286 439.613C311.286 470.582 288.032 495.776 259.449 495.776C230.865 495.776 207.611 470.582 207.611 439.613C207.611 408.645 230.865 383.45 259.449 383.45ZM259.449 492.816C286.4 492.816 308.326 468.949 308.326 439.613C308.326 410.277 286.4 386.41 259.449 386.41C232.497 386.41 210.571 410.277 210.571 439.613C210.571 468.949 232.497 492.816 259.449 492.816Z" fill="#151515"/>
<path d="M199.682 219.681C198.644 220.343 195.197 221.681 194.787 222.115C194.1 224.346 196.776 232.29 191.606 240.448C191.325 240.893 190.845 241.135 190.356 241.135C189.199 241.135 188.479 239.852 189.107 238.863C191.258 235.466 192.166 231.496 191.882 226.727C191.833 225.23 191.428 221.957 192.196 220.705C193.233 219.015 196.863 217.972 198.087 217.188C214.07 206.963 222.556 189.265 230.573 172.26C230.922 171.522 231.799 171.202 232.542 171.55C233.281 171.899 233.598 172.782 233.25 173.52C228.793 182.976 224.186 192.754 218.017 201.513C212.541 209.289 206.374 215.401 199.682 219.681Z" fill="#151515"/>
<path d="M507.833 496.479C507.755 497.229 507.103 497.781 506.373 497.781H506.196C501.4 497.248 490.981 496.873 477.819 496.597V493.617C491.06 493.894 501.578 494.288 506.531 494.841C507.34 494.92 507.932 495.65 507.833 496.479Z" fill="#151515"/>
<path d="M482.366 280.206H513.416V292.089H482.366V280.206Z" fill="#151515"/>
<path d="M264.566 431.576C267.95 433.269 270.277 436.914 270.359 440.646C270.376 441.463 269.728 442.142 268.91 442.159C268.136 442.194 267.417 441.529 267.399 440.712C267.273 434.915 260.612 431.372 255.436 434.674C250.555 437.794 250.275 445.182 254.872 448.264C256.978 449.679 259.931 449.711 261.891 448.341C262.561 447.877 263.486 448.035 263.952 448.707C264.42 449.378 264.256 450.301 263.587 450.769C260.606 452.847 256.35 452.818 253.224 450.723C250.299 448.763 248.535 445.242 248.622 441.535C248.82 433.214 257.456 428.022 264.566 431.576Z" fill="#151515"/>
<path d="M250.613 424.875C250.117 424.875 249.633 424.626 249.353 424.174L237.468 404.949C237.037 404.253 237.253 403.342 237.948 402.912C238.644 402.482 239.554 402.696 239.985 403.392L251.87 422.616C252.486 423.611 251.755 424.875 250.613 424.875Z" fill="#151515"/>
<path d="M217.112 444.206C225.034 442.984 233.089 442.749 241.062 443.498C241.875 443.576 242.473 444.298 242.396 445.111C242.32 445.927 241.604 446.51 240.783 446.447C233.057 445.711 225.243 445.944 217.563 447.131C216.746 447.255 215.998 446.695 215.875 445.894C215.751 445.086 216.304 444.331 217.112 444.206Z" fill="#151515"/>
<path d="M259.619 458.591C260.385 458.306 261.237 458.699 261.521 459.464L269.334 480.552C269.618 481.319 269.227 482.171 268.461 482.454C267.714 482.735 266.847 482.362 266.559 481.581L258.746 460.493C258.461 459.726 258.853 458.875 259.619 458.591Z" fill="#151515"/>
<path d="M275.086 445.167C275.46 444.445 276.351 444.158 277.08 444.53L297.369 454.976C298.096 455.35 298.382 456.242 298.008 456.971C297.63 457.702 296.733 457.979 296.015 457.609L275.725 447.162C274.999 446.788 274.713 445.896 275.086 445.167Z" fill="#151515"/>
<path d="M268.123 455.747C267.833 452.071 270.952 449.059 276.371 452.045C281.859 455.069 286.911 458.826 291.389 463.212C292.434 464.238 293.615 465.457 294.407 466.974C295.343 468.764 295.556 470.732 294.99 472.37C294.55 473.655 292.716 473.737 292.222 472.392C291.63 472.488 291.013 472.182 290.611 471.723C290.175 471.225 289.934 470.592 289.663 469.988C286.85 463.711 280.334 459.544 272.697 453.803C271.461 453.635 270.981 454.349 271.073 455.516C271.135 456.304 271.489 457.125 271.911 458.04C274.924 464.588 278.521 470.923 282.6 476.866C283.063 477.54 282.892 478.461 282.218 478.924C281.543 479.387 280.621 479.215 280.161 478.542C275.986 472.46 272.305 465.978 269.222 459.279C268.7 458.144 268.222 457.021 268.123 455.747Z" fill="#151515"/>
<path d="M278.895 438.465C274.536 437.047 273.15 432.617 276.091 429.045C277.156 427.748 278.563 426.858 279.913 426.056C286.279 422.275 293.069 419.173 300.093 416.837C300.876 416.577 301.707 417.001 301.966 417.776C302.223 418.55 301.804 419.389 301.028 419.647C294.204 421.915 287.609 424.929 281.425 428.6C280.254 429.296 279.14 429.997 278.376 430.926C276.786 432.859 277.414 434.87 279.81 435.649C281.411 436.17 281.983 436.035 298.082 435.761C298.887 435.761 299.488 436.409 299.503 437.216C299.516 438.033 298.806 438.71 297.988 438.723C282.35 438.988 281.171 439.203 278.895 438.465Z" fill="#151515"/>
<path d="M265.247 418.56C263.371 423.425 260.389 423.965 258.02 422.473C256.963 422.301 255.928 421.569 255.159 420.757C252.106 417.536 250.729 413.015 250.5 408.583C250.344 405.578 250.289 401.597 251.313 398.729C251.333 398.671 251.363 398.605 251.392 398.54C251.325 397.773 251.228 397.009 251.18 396.241C251.129 395.425 251.749 394.722 252.565 394.672C253.393 394.564 254.083 395.24 254.134 396.056C254.746 405.806 257.543 417.587 258.986 419.443C259.396 419.971 259.972 420.295 260.429 420.237C262.161 420.033 262.806 415.998 268.755 401.209C269.049 400.446 269.907 400.062 270.668 400.359C271.431 400.654 271.811 401.509 271.517 402.272L265.247 418.56Z" fill="#151515"/>
<path d="M269.805 424.679C268.513 424.679 267.834 423.114 268.738 422.173L284.531 405.714C285.095 405.124 286.034 405.107 286.623 405.672C287.214 406.236 287.233 407.175 286.667 407.765C270.397 424.47 271.008 424.679 269.805 424.679Z" fill="#151515"/>
<path d="M240.829 434.235C241.567 434.027 242.386 433.481 242.554 432.726C242.764 431.799 242.008 430.643 241.327 429.737C237.684 424.896 232.944 420.813 227.62 417.93C226.901 417.54 226.633 416.642 227.022 415.924C227.411 415.207 228.312 414.939 229.028 415.328C234.725 418.412 239.795 422.778 243.691 427.956C244.756 429.371 245.917 431.265 245.443 433.375C245.055 435.105 243.545 436.74 240.984 437.21C239.912 438.479 238.356 438.534 236.659 438.483C228.86 438.252 222.025 436.589 217.663 430.352C216.189 429.02 215.31 427.351 215.193 425.644C215.136 424.829 215.752 424.121 216.567 424.066C217.377 424.019 218.089 424.624 218.145 425.44C218.308 427.799 220.858 429.187 223.008 430.146C227.601 432.198 232.464 433.578 237.461 434.25C238.596 434.402 239.792 434.526 240.829 434.235Z" fill="#151515"/>
<path d="M245.246 463.862C242.058 468.795 237.765 473.083 232.829 476.257C231.475 477.131 229.882 475.491 230.824 474.159C230.724 474.19 230.631 474.239 230.531 474.268C237.788 466.622 241.267 463.561 242.422 459.046C242.574 458.453 242.616 457.462 243.024 456.918C239.82 454.509 229.878 455.351 223.845 462.208C223.308 462.821 222.37 462.883 221.757 462.343C221.144 461.804 221.083 460.867 221.624 460.254C231.996 448.461 253.38 451.267 245.246 463.862Z" fill="#151515"/>
<path d="M86.4897 494.892C87.2181 495.262 87.5091 496.152 87.1391 496.883C86.3587 498.418 87.4263 500.563 88.912 501.602C91.2026 503.203 93.616 503.267 105.656 504.88C108.919 505.316 109.809 506.051 112.71 508.503C117.019 512.145 121.809 514.74 128.19 515.298C133.071 515.718 138.545 515.837 141.805 511.704C142.311 511.064 143.244 510.954 143.883 511.459C144.525 511.966 144.635 512.897 144.129 513.538C140.217 518.496 134.19 518.799 127.932 518.246C121.156 517.654 115.773 514.962 110.798 510.763C106.459 507.098 108.353 508.449 95.0845 506.45C92.6564 506.125 89.6366 505.72 87.2162 504.03C84.6667 502.248 82.9535 498.586 84.499 495.541C84.871 494.815 85.7555 494.524 86.4897 494.892Z" fill="#151515"/>
<path d="M203.336 115.42L196.793 109.053C196.207 108.485 196.195 107.546 196.764 106.96C197.334 106.377 198.271 106.361 198.857 106.933L205.399 113.297C205.985 113.867 205.999 114.804 205.428 115.389C204.859 115.976 203.923 115.99 203.336 115.42Z" fill="#151515"/>
<path d="M384.575 487.126H471.422C472.239 487.126 472.902 487.789 472.902 488.606C472.902 489.423 472.239 490.086 471.422 490.086H384.575C383.758 490.086 383.095 489.423 383.095 488.606C383.095 487.789 383.758 487.126 384.575 487.126Z" fill="#151515"/>
<g opacity="0.44">
<path d="M167.059 300.596C143.441 246.069 118.841 191.995 95.7678 137.369C94.6089 134.625 93.43 131.786 93.4496 128.808C93.4692 125.829 95.0066 122.65 97.8088 121.641C101.629 120.266 105.546 123.325 108.19 126.406C110.834 129.487 113.704 133.126 117.758 133.342C122.468 133.593 126.087 128.82 126.817 124.16C127.546 119.5 126.331 114.774 126.188 110.06C126.045 105.345 127.403 100.009 131.534 97.7327C137.202 94.6089 143.984 98.9546 148.826 103.249C153.667 107.544 159.859 112.356 165.92 110.089C174.938 106.717 172.881 92.4318 179.845 85.7833C184.453 81.383 192.08 81.634 197.678 84.679C203.737 87.9757 203.381 95.8464 206.315 101.8C209.696 108.662 214.598 114.785 220.63 119.499C223.765 121.948 227.274 124.119 229.433 127.461C233.134 133.187 231.922 140.653 230.691 147.359C222.736 190.71 219.717 234.964 221.712 278.994" fill="#1993D3"/>
</g>
</svg>
