<svg width="329" height="348" viewBox="0 0 329 348" fill="none" xmlns="http://www.w3.org/2000/svg">
<path d="M90.3012 36.4352C96.5835 36.5117 102.48 36.444 106.435 36.3128C110.214 37.645 113.992 38.9092 117.785 40.051C135.091 45.2394 152.24 47.772 170.128 44.2785C176.934 42.9309 178.142 38.3839 171.855 35.5788C166.717 33.3087 161.728 30.8891 156.686 28.5239C157.243 27.8306 157.311 27.0966 156.998 25.8052C154.348 14.9033 145.921 5.59193 135.332 1.85376C124.758 -1.8708 112.348 0.113776 103.445 6.93766C94.8281 13.5556 89.4398 24.7992 90.3012 36.4352Z" fill="#1993D3"/>
<path d="M153.653 118.603C151.202 125.198 149.205 132.032 147.717 138.913C147.472 140.052 145.801 139.947 145.704 138.782L144.631 125.803C144.315 121.986 143.931 117.351 141.037 115.004C140.973 117.107 140.873 116.676 130.825 142.797C130.673 143.192 130.294 143.451 129.874 143.451C129.867 143.451 129.861 143.451 129.854 143.451C129.426 143.443 129.048 143.166 128.909 142.762C124.591 130.164 115.232 119.625 103.232 113.848C102.724 113.604 102.511 112.994 102.755 112.487C103 111.98 103.608 111.764 104.116 112.011C115.788 117.63 125.058 127.577 129.889 139.557C138.996 115.955 139.143 116.112 139.018 114.545C138.876 112.755 137.377 111.4 136.022 110.73C133.26 109.364 129.749 108.58 126.717 107.52C97.1768 97.2119 97.9001 97.2699 97.3491 97.5385C96.8573 97.7788 96.9243 98.9297 97.209 99.9638L100.282 111.109C100.431 111.652 100.113 112.214 99.5697 112.362C99.0282 112.514 98.4654 112.195 98.316 111.651L95.2432 100.505C94.7221 98.6117 94.9493 97.4409 95.389 96.704C95.3562 96.6787 95.3173 96.6668 95.287 96.6372C94.8861 96.2416 94.8821 95.5964 95.2777 95.1955C97.8933 92.5432 101.839 91.0286 106.388 90.9304C110.028 90.857 113.576 91.6284 117.017 92.4452C117.706 83.5118 117.461 84.5272 117.606 83.7957C113.17 82.0865 110.547 80.0572 106.933 76.8516C99.9693 75.644 93.5965 71.6425 89.5494 65.9413C85.7021 60.5219 85.6551 57.783 87.5436 53.4667C87.3695 53.3127 87.1789 53.1836 87.0118 53.0189C84.905 50.9391 83.5865 48.0437 83.4098 45.0804C83.1216 40.2663 86.6627 36.5583 89.9341 36.9651C89.8797 36.8972 89.8526 36.8156 89.8118 36.7341C89.4584 35.8777 89.6894 35.0213 90.2059 34.2465C90.2195 34.9806 90.2467 35.701 90.3011 36.4351C96.5834 36.5115 102.48 36.4438 106.435 36.3127C110.214 37.6448 113.992 38.909 117.785 40.0508C117.486 42.9462 114.441 45.7465 111.804 46.4805C108.963 47.2553 105.701 46.2222 103.825 43.9385C103.418 45.0804 102.983 46.2494 102.154 47.1194C101.324 48.003 100.006 48.5331 98.8914 48.0845C96.8147 47.2577 96.9278 44.0313 96.7574 42.7695C96.0087 41.6195 93.8281 39.8556 91.6467 39.276C89.3842 38.6424 88.0841 39.0987 87.0661 40.1732C84.2201 43.2329 85.3697 48.5524 88.4526 51.5644C90.2331 53.3316 92.5166 54.3647 95.4254 54.7452C95.9555 54.8132 96.3496 55.289 96.3089 55.8192C96.105 58.9863 98.905 63.5266 100.618 66.2588C102.779 69.7523 105.47 72.9059 108.61 75.6246C112.334 78.8598 114.563 80.5454 118.954 82.1358C119.484 82.3262 119.756 82.9107 119.565 83.4407C119.549 83.4846 119.517 83.5151 119.496 83.5553C119.566 83.7021 119.614 83.8605 119.606 84.0341C119.243 91.9279 118.472 99.008 118.288 102.412L127.39 105.595C133.013 107.561 138.379 108.179 140.437 112.286C140.463 112.295 140.489 112.293 140.514 112.304C145.757 114.676 146.28 121.01 146.671 125.739L147.21 132.257C148.482 127.395 149.998 122.584 151.742 117.891C152.203 116.651 152.648 115.546 153.424 114.565C155.117 112.422 157.285 112.54 157.149 112.576C160.78 112.576 162.199 116.517 167.842 124.707C169.607 108.583 170.017 109.171 168.108 106.845C163.313 101.002 154.4 97.9846 148.225 97.1774C147.667 97.1031 147.273 96.592 147.346 96.0332C147.419 95.4756 147.936 95.0827 148.489 95.1544C155.034 96.0119 164.511 99.2483 169.684 105.552C172.247 108.669 171.642 108.723 169.562 127.729C169.458 128.669 168.229 128.978 167.699 128.181C160.564 117.637 159.364 114.615 157.148 114.615C157.011 114.656 156.026 114.561 155.023 115.83C154.431 116.577 154.053 117.528 153.653 118.603ZM116.856 94.5026C110.427 92.9634 103.508 91.6289 98.1146 95.4721C98.8987 95.5739 98.1272 95.3624 116.286 101.711C116.301 101.489 116.845 94.6385 116.856 94.5026Z" fill="#151515"/>
<path d="M185.327 253.857C185.132 254.031 184.89 254.116 184.649 254.116C184.368 254.116 184.089 254 183.887 253.775C183.513 253.354 183.55 252.71 183.97 252.336C191.852 245.312 192.735 231.225 189.533 220.938C186.893 212.453 182.525 204.345 181.223 195.372C179.435 183.06 183.651 170.755 185.629 158.771C187.057 150.12 187.938 134.299 177.799 125.55C177.372 125.182 177.325 124.538 177.692 124.112C178.06 123.686 178.703 123.636 179.13 124.007C190.024 133.406 189.138 150.03 187.64 159.103C185.668 171.068 181.517 183.211 183.24 195.08C184.495 203.722 188.836 211.842 191.48 220.333C194.771 230.906 194.249 245.908 185.327 253.857Z" fill="#151515"/>
<path d="M11.4037 220.209C12.0011 219.105 12.6306 218.022 13.2789 216.948C9.52635 207.853 6.51241 198.743 5.45142 191.07C1.76266 164.382 89.5826 115.519 93.3231 113.453C93.8182 113.18 94.4354 113.357 94.7082 113.852C94.981 114.345 94.8018 114.965 94.3093 115.237C93.4054 115.736 3.97208 165.476 7.47168 190.791C10.7941 214.824 34.4511 254.685 37.8704 260.347L71.5908 249.925L59.2682 197.419C59.1633 196.973 59.3697 196.511 59.7726 196.292L93.5919 177.867C94.0876 177.595 94.7055 177.778 94.975 178.274C95.2444 178.768 95.0619 179.388 94.5675 179.656L78.3704 188.481C84.0842 188.541 89.7756 188.81 95.3358 189.719C117.348 193.346 133.411 207.716 144.2 226.951C151.689 240.3 154.544 254.192 155.087 269.267C155.848 289.929 149.786 311.814 134.74 326.617C127.21 334.026 118.348 337.941 108.711 341.665C100.909 344.669 92.6582 346.409 84.3399 347.211C68.8609 348.727 52.7196 348.651 38.9824 341.543C17.7147 330.523 1.52588e-05 303.354 1.52588e-05 267.976C1.52588e-05 249.314 2.27869 237.13 11.4037 220.209ZM43.1749 276.569C43.4821 272.867 43.7371 269.565 42.001 265.053C42.0517 269.001 42.4553 272.854 43.1749 276.569ZM73.986 277.589C76.8465 278.126 78.4741 280.824 80.2107 282.553C81.4504 283.792 84.2028 284.81 85.0728 283.312C85.6317 282.354 85.0881 280.915 83.4581 279.034L62.5833 254.957C62.5579 254.928 62.5499 254.891 62.5284 254.86L42.3376 261.101C42.37 261.14 42.4122 261.167 42.4391 261.212C42.7644 261.755 42.8751 262.037 42.9419 262.173C48.1148 272.333 43.2427 278.119 45.9188 284.279C46.806 286.323 49.3166 288.102 51.2641 287.135C51.8304 286.856 52.4979 287.15 52.6871 287.734C53.8341 291.266 56.705 290.292 59.8761 291.65C63.2697 293.101 64.8822 295.968 68.5199 294.635C74.7565 292.349 73.1595 284.637 72.7808 278.655C72.7383 277.988 73.3426 277.465 73.986 277.589ZM73.102 251.592L64.6334 254.21L84.9992 277.698C87.2623 280.309 87.8802 282.544 86.8343 284.34C85.2047 287.133 81.0345 286.255 78.7705 283.997C77.4758 282.704 76.2967 280.997 74.941 280.138C75.5253 287.003 75.9863 294.07 69.2221 296.55C64.5244 298.271 62.0934 294.818 59.0744 293.524C56.4933 292.419 52.8982 293.05 51.1307 289.334C49.5682 289.68 48.0176 289.213 46.6774 288.274C52.5003 302.307 63.2104 311.787 75.3145 311.787C77.9244 311.787 80.4388 311.352 82.8446 310.523C100.509 284.089 97.2638 240.847 76.1437 218.917C73.0447 218.562 69.8982 218.844 66.6348 219.885L73.7929 250.385C73.9157 250.906 73.6137 251.434 73.102 251.592ZM100.909 340.7C116.023 330.138 126.924 313.473 131.627 293.803C135.406 278.008 133.911 261.329 132.008 250.1C129.833 237.35 124.383 225.116 115.833 213.752C105.53 200.091 93.202 191.989 79.1884 189.692C78.6176 189.596 78.1009 189.977 78.0193 190.535C77.9244 191.092 78.305 191.608 78.8622 191.704C92.3456 193.919 104.239 201.749 114.202 214.975C122.561 226.081 127.876 238.016 129.996 250.454C131.872 261.478 133.34 277.872 129.643 293.327C125.062 312.521 114.447 328.751 99.74 339.028C98.6541 339.794 99.7889 341.476 100.909 340.7ZM4.96104 269.892C5.65427 308.538 28.4893 339.871 55.9727 339.871C69.103 339.871 80.9146 332.721 89.5863 321.031C99.0737 308.266 104.823 290.078 104.456 269.892C103.994 244.079 93.6504 221.527 78.6448 209.402C73.6234 205.339 68.0814 202.471 62.2078 201.022L65.6076 215.508C68.6738 215.404 71.6023 215.705 74.3767 216.321C99.1441 236.882 103.647 283.797 85.0467 311.597C84.6253 312.236 84.1902 312.861 83.7419 313.473C56.395 326.957 25.14 303.024 24.629 266.603C24.5278 259.557 25.6441 252.851 27.721 246.743C24.1845 240.259 20.0778 232.308 16.3308 224.008C8.95567 236.301 4.64413 252.34 4.96104 269.892Z" fill="#151515"/>
<path d="M23.7547 189.594C22.3662 186.161 23.0578 181.91 25.605 178.225C27.8064 175.041 31.0299 172.658 33.8738 170.556L66.4149 146.513C66.8688 146.18 67.5066 146.276 67.8405 146.728C68.1756 147.181 68.0794 147.819 67.6268 148.154L35.0857 172.197C32.2365 174.303 29.2904 176.478 27.2821 179.385C25.6183 181.793 24.3135 185.538 25.6448 188.829C27.5099 193.442 34.0258 196.628 33.3913 202.365C32.8772 207.021 27.9662 209.236 26.2893 212.872C24.5564 216.625 26.7286 221.044 29.1146 223.69C31.8968 226.772 35.801 229.14 38.882 232.223C42.8342 236.179 44.5087 240.919 43.3612 244.903C43.2087 245.431 42.6564 245.757 42.0995 245.6C41.5586 245.445 41.246 244.879 41.402 244.337C42.3411 241.078 40.8598 237.088 37.4391 233.665C34.37 230.591 30.6119 228.392 27.6014 225.056C24.7993 221.95 22.2892 216.673 24.4376 212.017C26.2556 208.08 30.9603 205.805 31.3644 202.142C31.6538 199.527 29.7258 197.385 27.6843 195.117C26.1705 193.435 24.6048 191.695 23.7547 189.594Z" fill="#151515"/>
<path d="M156.554 255.507L185.843 256.119C186.365 256.129 186.794 256.533 186.838 257.055C187.691 267.349 188.606 278.009 189.519 288.669C190.44 299.402 191.361 310.136 192.22 320.504C192.266 321.064 191.849 321.557 191.288 321.603C191.26 321.606 191.231 321.607 191.203 321.607C190.678 321.607 190.232 321.205 190.188 320.671C189.329 310.308 188.408 299.575 187.488 288.842C186.859 281.505 186.23 274.173 185.621 266.954L157.831 266.926C157.268 266.926 156.812 266.468 156.813 265.905C156.814 265.342 157.27 264.887 157.833 264.887C158.033 264.887 185.237 264.915 185.449 264.915C185.258 262.644 185.068 260.38 184.882 258.138L156.511 257.546C155.948 257.534 155.502 257.068 155.513 256.505C155.526 255.941 156.007 255.523 156.554 255.507Z" fill="#151515"/>
<path d="M143.763 84.8096C143.765 83.8184 144.921 83.7319 144.784 83.7927C145.347 83.794 145.803 84.2507 145.802 84.8149L145.777 96.6878C145.77 99.8225 146.67 103.207 146.113 106.341C146.015 106.892 145.49 107.264 144.93 107.166C144.376 107.067 144.007 106.538 144.106 105.983C144.4 104.326 144.208 102.501 144.006 100.569C143.505 95.7994 143.856 97.1083 143.763 84.8096Z" fill="#151515"/>
<path d="M131.023 85.9692C131.023 85.4118 131.485 84.9497 132.043 84.9497C138.839 84.9361 145.132 82.1766 148.87 77.5549C153.26 72.1312 154.13 64.6276 154.402 57.9941C154.592 53.5083 154.606 49.539 154.443 45.8823C155.122 45.8823 155.802 45.8688 156.481 45.828C156.645 49.539 156.631 53.5626 156.441 58.0756C156.155 65.0354 155.231 72.9603 150.46 78.8327C146.328 83.9302 139.45 86.9751 132.043 86.9887C131.485 86.9887 131.023 86.5265 131.023 85.9692Z" fill="#151515"/>
<path d="M130.741 58.1063C131.275 57.9244 131.855 58.2071 132.036 58.7408C132.872 61.1807 135.143 63.1069 137.687 63.5356C140.232 63.9644 143.007 62.8838 144.595 60.8515C144.942 60.4068 145.582 60.3271 146.026 60.6762C146.469 61.0227 146.548 61.6639 146.201 62.1073C141.691 67.8818 132.502 66.3907 130.107 59.4019C129.925 58.8696 130.208 58.2895 130.741 58.1063Z" fill="#151515"/>
<path d="M156.94 29.0411C147.201 32.5509 137.013 34.4864 126.658 34.7957C126.647 34.7957 126.637 34.7957 126.627 34.7957C126.078 34.7957 125.624 34.3589 125.609 33.8067C125.591 33.2438 126.034 32.7739 126.597 32.7567C136.737 32.4553 146.713 30.5597 156.249 27.1215C156.777 26.9304 157.362 27.2065 157.554 27.7362C157.745 28.2658 157.47 28.8499 156.94 29.0411Z" fill="#151515"/>
<path d="M135.673 21.509C135.143 21.9709 134.493 22.4794 133.689 22.7395C132.61 23.0863 131.589 22.8767 130.902 22.3386C129.8 21.4812 129.704 20.0003 129.601 19.2562C129.503 18.554 129.268 18.0363 129.015 17.9646C128.79 17.9075 128.37 18.1584 128.019 18.5766C127.299 19.4342 126.853 20.4822 125.865 21.3908C124.67 22.4966 122.67 22.932 121.393 21.7559C119.784 20.2662 120.017 15.945 120.647 13.6278C120.795 13.0848 121.357 12.7662 121.898 12.9122C122.442 13.0596 122.762 13.6198 122.614 14.1641C121.913 16.7412 122.232 19.7531 122.777 20.2585C123.153 20.6023 123.987 20.3501 124.484 19.8921C125.132 19.2952 125.762 18.094 126.458 17.265C128.305 15.0676 131.132 15.5029 131.62 18.9722L131.645 19.1474C131.8 20.2774 131.938 21.1682 133.061 20.7988C134.127 20.455 137.001 17.8141 138.463 14.1123C138.671 13.5879 139.263 13.3304 139.786 13.5388C140.309 13.7446 140.566 14.338 140.36 14.861C139.354 17.4071 137.734 19.7063 135.673 21.509Z" fill="#151515"/>
<path d="M201.894 236.119C208.576 239.594 215.347 239.88 222.012 236.971C249.673 224.893 268.456 162.102 270.524 154.92L249.867 139.372C238.601 147.46 238.63 147.72 236.199 149.385L212.659 189.284C212.473 189.6 212.136 189.786 211.78 189.786C211.706 189.786 211.631 189.778 211.557 189.761C211.553 189.76 211.55 189.758 211.547 189.757L203.281 204.593C203.005 205.087 202.382 205.259 201.894 204.987C201.402 204.712 201.225 204.092 201.499 203.6L210.601 187.264C206.092 142.094 186.397 123.386 174.963 116.241C174.485 115.944 174.34 115.315 174.638 114.837C174.937 114.359 175.566 114.216 176.043 114.513C187.669 121.777 207.608 140.598 212.487 185.564L226.294 162.161C223.556 163.272 221.23 162.036 218.974 160.099C215.895 157.461 213.233 154.324 211.056 150.769C208.693 146.84 209.563 145.288 209.522 144.965C210.01 142.782 211.899 141.041 214.985 139.932C218.799 138.568 223.104 138.674 225.564 138.9C234.33 132.269 243.083 125.652 251.836 119.048C248.094 114.259 231.394 92.8584 227.541 88.2504C220.972 80.3939 224.318 82.217 218.126 79.9842C216.677 79.4446 213.882 78.4001 212.627 77.3014C210.152 75.4668 209.047 73.084 209.517 70.5804C209.859 68.8334 210.854 67.3918 211.878 66.0935C214.694 62.5359 218.024 59.4588 221.778 56.9459C223.459 55.8308 225.691 54.6002 228.049 55.0117C230.779 55.4889 232.605 57.9426 233.674 60.4823C233.702 60.6186 235.779 64.7103 235.423 72.3645L257.039 98.5831C260.275 96.2938 263.79 95.9238 266.532 96.94C268.593 97.7053 269.533 99.0544 270.796 100.791C271.391 101.6 272.07 102.54 272.147 103.692C292.116 88.5985 298.128 84.0543 305.196 78.7165C306.044 76.5606 307.397 74.1141 308.77 72.2649C312.792 66.8092 318.904 67.0743 323.056 71.6702C324.988 73.8101 326.164 76.4717 327.197 78.812C327.831 80.2165 328.619 81.9648 328.893 83.8206C329.223 85.9631 328.785 87.9451 327.652 89.4066C326.268 91.1589 324.062 91.8584 321.919 92.4253C318.861 93.2327 315.859 91.7939 313.859 93.2603C307.617 97.9542 286.08 113.398 283.082 115.549C283.097 115.573 283.121 115.588 283.134 115.614C285.735 120.675 286.299 126.69 284.705 132.152L305.64 157.556C308.097 158.417 310.867 159.797 312.939 161.203C319.01 165.362 319.147 171.963 314.245 176.798C312.009 178.993 309.131 180.424 306.591 181.687C304.275 182.836 301.914 183.967 299.314 183.967C297.69 183.967 296.184 183.527 295.024 182.69C292.897 181.164 292.061 178.499 291.45 176.549C290.998 175.088 291.021 173.639 291.043 172.236C291.099 168.702 290.67 168.323 289.561 166.959C284.889 161.237 268.282 140.099 261.296 131.153C258.447 133.171 254.059 136.34 251.598 138.122L271.159 152.846C271.299 152.485 271.204 152.737 273.873 149.521C274.236 149.091 274.879 149.034 275.31 149.399C275.74 149.762 275.795 150.405 275.432 150.835C272.682 154.042 272.972 153.864 272.599 154.079C272.707 154.299 272.746 154.55 272.678 154.795C271.886 157.684 252.919 225.698 222.829 238.839C215.752 241.929 208.386 241.795 200.952 237.927C200.453 237.668 200.259 237.052 200.518 236.553C200.779 236.054 201.393 235.859 201.894 236.119ZM269.155 102C268.096 100.546 267.382 99.4317 265.822 98.8516C265.087 98.5795 264.292 98.444 263.469 98.444C259.765 98.444 256.738 100.955 254.579 103.931C254.076 104.627 253.836 105.368 254.054 105.591C254.395 105.946 255.861 105.431 257.092 105.743C257.143 105.629 257.212 105.521 257.308 105.428C259.558 103.24 262.335 101.597 265.335 100.673C265.873 100.511 266.444 100.81 266.609 101.347C266.775 101.886 266.473 102.456 265.935 102.622C263.241 103.45 260.749 104.926 258.728 106.891C258.72 106.899 258.709 106.901 258.701 106.909C259.251 107.772 259.295 108.869 259.321 109.741C259.375 111.477 259.511 111.723 260.438 111.763C261.298 111.763 261.441 111.088 262.363 110.204C263.22 109.394 264.453 108.676 264.288 108.777C266.209 107.567 269.013 106.286 269.855 104.764C270.388 103.815 270.12 103.312 269.155 102ZM281.411 116.746L275.5 120.981L283.094 130.196C284.065 125.686 283.478 120.881 281.411 116.746ZM260.913 128.927C261.358 128.614 261.969 128.702 262.304 129.131C283.815 156.67 291 165.469 291.711 166.382C293.146 168.178 293.113 170.258 293.082 172.269C293.043 174.678 293.097 175.284 293.944 177.571C294.305 177.161 294.937 177.011 295.507 176.918C301.533 175.932 307.105 172.954 311.306 168.756C311.836 168.226 313.227 166.157 314.246 165.215C313.608 164.363 312.783 163.568 311.791 162.888C309.786 161.528 307.073 160.189 304.711 159.394C304.531 159.333 304.371 159.222 304.25 159.076C271.507 119.147 272.899 121.495 273.009 120.654C273.117 119.821 273.321 120.173 283.483 112.754C306.955 95.9283 312.506 91.7234 312.643 91.6235C315.433 89.5747 318.712 91.1629 321.4 90.4527C322.5 90.1619 323.54 89.8343 324.431 89.3781C323.292 89.0552 322.717 87.7806 322.243 86.6764C320.376 82.333 317.424 78.4626 313.736 75.5064C312.461 74.4847 311.079 73.8103 311.288 72.4515C309.657 74.1276 307.853 77.4447 306.996 79.7147C306.835 80.1463 309.509 78.0063 265.881 110.985C265.509 111.263 265.009 111.253 264.653 110.984C263.056 112.105 263.352 112.409 262.345 113.191C261.819 113.599 261.275 113.76 260.689 113.788C255.85 114.035 258.074 108.534 256.752 107.779C256.009 107.356 253.914 108.391 252.592 107.012C252.167 106.474 252.298 106.659 252.169 106.39C252.024 106.089 252.068 106.223 251.995 105.881C251.64 104.227 252.941 102.622 254.015 101.37C254.537 100.76 255.071 100.21 255.449 99.8591C232.5 71.8665 233.322 73.4066 233.367 72.6486C233.586 68.8561 233.199 64.192 231.575 60.7923C230.324 61.7815 227.771 63.0192 227.012 63.5726C223.221 66.3398 219.919 69.7791 217.327 73.6933C216.614 74.7702 215.996 75.7836 214.905 76.3535C217.868 78.0447 220.529 78.4267 222.724 79.5475C224.12 80.2598 224.585 81.0102 225.412 82.2316C227.503 85.2866 223.099 78.9652 254.081 118.61C254.433 119.059 254.346 119.709 253.892 120.051C224.408 142.296 226.399 141.038 225.756 140.968C222.224 140.597 217.869 140.788 214.656 142.272C216.862 148.042 221.03 152.418 225.919 154.946C227.034 155.522 228.211 156.065 228.549 157.287C229.224 156.126 229.956 154.352 230.444 153.105C232.064 148.966 232.612 149.361 234.86 147.837C235.845 147.171 245.903 139.533 260.913 128.927Z" fill="#151515"/>
<path d="M289.464 145.444L298.077 156.545C298.423 156.989 298.342 157.631 297.898 157.976C297.448 158.323 296.809 158.236 296.467 157.795L287.854 146.695C287.508 146.25 287.589 145.609 288.034 145.264C288.479 144.92 289.12 145 289.464 145.444Z" fill="#151515"/>
<path d="M234.524 89.0867L226.696 80.9612C226.305 80.5563 226.317 79.9099 226.722 79.5196C227.126 79.1293 227.773 79.1426 228.164 79.5461L235.993 87.6716C236.383 88.0765 236.371 88.723 235.966 89.1132C235.562 89.5033 234.916 89.4926 234.524 89.0867Z" fill="#151515"/>
<path d="M288.737 61.43C277.37 53.6059 261.944 52.3249 249.441 58.1605C248.933 58.3968 248.325 58.1777 248.086 57.668C247.848 57.1582 248.069 56.5516 248.578 56.3126C261.723 50.1757 277.941 51.5258 289.893 59.7495C290.357 60.0694 290.474 60.7039 290.155 61.1672C289.837 61.6313 289.203 61.7485 288.737 61.43Z" fill="#151515"/>
<path d="M282.047 46.2676C281.272 46.2676 272.387 42.4753 260.132 45.4897C259.584 45.6251 259.033 45.2892 258.899 44.7423C258.765 44.1954 259.1 43.6432 259.647 43.5091C267.145 41.6665 275 41.9307 282.357 44.2764C283.461 44.629 283.207 46.2676 282.047 46.2676Z" fill="#151515"/>
<path d="M317.243 143.682C322.553 131.989 324.785 119.048 323.698 106.256C323.65 105.695 324.066 105.202 324.627 105.154C325.178 105.105 325.681 105.521 325.729 106.084C326.846 119.223 324.553 132.515 319.1 144.526C318.929 144.902 318.559 145.123 318.171 145.123C318.031 145.123 317.887 145.094 317.75 145.032C317.238 144.799 317.011 144.195 317.243 143.682Z" fill="#151515"/>
<path d="M313.45 127.945C313.277 127.945 313.103 127.901 312.942 127.808C312.454 127.528 312.287 126.904 312.568 126.417C314.753 122.623 315.954 118.302 316.039 113.922C316.051 113.358 316.55 112.929 317.079 112.923C317.641 112.933 318.089 113.399 318.078 113.962C317.985 118.684 316.691 123.344 314.334 127.433C314.146 127.761 313.803 127.945 313.45 127.945Z" fill="#151515"/>
<path d="M267.317 189.425C266.756 189.379 266.339 188.885 266.386 188.323C266.434 187.763 266.936 187.337 267.488 187.394C272.93 187.848 278.547 186.614 283.294 183.9C283.781 183.62 284.404 183.791 284.685 184.28C284.964 184.768 284.794 185.391 284.305 185.671C279.899 188.188 274.799 189.526 269.719 189.526C268.917 189.526 268.115 189.493 267.317 189.425Z" fill="#151515"/>
<path d="M260.235 196.783C265.514 197.94 271.084 197.882 276.341 196.612C276.889 196.487 277.438 196.816 277.57 197.365C277.703 197.912 277.366 198.463 276.818 198.595C273.91 199.296 270.91 199.648 267.911 199.648C265.184 199.648 262.456 199.357 259.798 198.775C259.249 198.654 258.9 198.111 259.021 197.561C259.141 197.012 259.68 196.665 260.235 196.783Z" fill="#151515"/>
<path d="M202.042 124.675C201.544 124.675 201.108 124.31 201.035 123.801C199.171 110.978 202.56 97.678 210.333 87.3104C210.671 86.8604 211.309 86.7701 211.761 87.1073C212.211 87.4445 212.303 88.083 211.965 88.5343C204.514 98.4705 201.266 111.218 203.052 123.509C203.141 124.121 202.667 124.675 202.042 124.675Z" fill="#151515"/>
<path d="M194.694 100.573C194.709 101.136 194.265 101.605 193.702 101.619C193.693 101.619 193.684 101.619 193.675 101.619C193.124 101.619 192.671 101.18 192.657 100.626C192.537 96.0016 194.268 91.4005 197.407 88.0022C197.789 87.5867 198.435 87.5628 198.848 87.9451C199.261 88.3274 199.287 88.9726 198.905 89.3854C196.122 92.3975 194.588 96.4755 194.694 100.573Z" fill="#151515"/>
</svg>
