<svg width="29" height="29" viewBox="0 0 29 29" fill="none" xmlns="http://www.w3.org/2000/svg">
<g clip-path="url(#clip0_7_233)">
<path d="M1.65876 23.5746C1.97417 23.6189 2.28171 23.5084 2.57239 23.2454C3.00233 22.856 3.46397 22.4847 3.90998 22.1257C4.08646 21.9838 4.26304 21.8419 4.43828 21.6984C4.67028 21.5087 4.90451 21.3215 5.14742 21.1275L5.38976 20.9335C5.56691 21.167 5.74631 21.3965 5.92043 21.6193C6.4621 22.3123 6.97465 22.9682 7.39864 23.7049L7.3602 23.7401C7.2968 23.7978 7.24251 23.8475 7.18563 23.8939C6.8679 24.1529 6.54943 24.4113 6.23021 24.6692C5.57085 25.2037 4.8889 25.756 4.2255 26.3089C3.87829 26.5983 3.71709 26.8562 3.71832 27.1205C3.71967 27.3879 3.88818 27.6497 4.24865 27.9444C4.78294 28.3947 5.42345 28.6984 6.10825 28.8263C6.55648 28.9066 7.0108 28.9475 7.46608 28.9484C7.8895 28.9483 8.31214 28.9117 8.72938 28.839C11.8917 28.2917 14.1682 25.3262 13.9119 22.0874C13.8646 21.4213 13.7056 20.7682 13.4416 20.1557L20.4621 14.3006C20.6333 14.3436 20.7964 14.3878 20.9545 14.4304C21.2996 14.5303 21.6495 14.6122 22.0029 14.6755C22.7699 14.7936 23.5526 14.7553 24.3047 14.5629C25.0567 14.3705 25.7628 14.0279 26.381 13.5555C27.0682 13.042 27.6461 12.3946 28.0805 11.6518C28.515 10.9091 28.7971 10.0861 28.9101 9.23148C29.1304 7.66185 28.6305 6.26618 28.1705 5.22592C28.1518 5.18378 28.1319 5.142 28.1121 5.1002C28.0574 4.99535 28.0139 4.88485 27.9825 4.77064C27.9054 4.4351 27.7741 4.22804 27.5809 4.13753C27.403 4.05426 27.1822 4.07954 26.9246 4.21242C26.5795 4.4042 26.2616 4.64171 25.9792 4.9186C25.339 5.51582 24.6997 6.13165 24.0812 6.7274C23.8625 6.93803 23.644 7.14816 23.4259 7.35781L20.5728 4.93978L20.5795 4.92702C20.599 4.88569 20.6218 4.84602 20.6476 4.80848C21.342 3.88954 22.1855 2.82481 23.1856 1.88911C23.3212 1.77168 23.4424 1.63861 23.5472 1.49262C23.7196 1.23117 23.6933 0.947421 23.4835 0.802534C23.436 0.769759 23.3885 0.736577 23.3406 0.702971C23.0181 0.476409 22.6847 0.242721 22.3114 0.143147C21.7944 0.0178112 21.2609 -0.0239059 20.7309 0.0196331C19.4588 0.0844653 18.2188 0.446693 17.1093 1.07761C15.0578 2.26615 14.0124 3.9983 14.0018 6.22598C13.9959 6.9618 14.1797 7.68654 14.5357 8.32905C12.242 10.1359 10.1903 11.7943 8.36024 13.7005C7.43538 13.2323 6.47277 13.2754 5.64841 13.3813C3.4869 13.6597 1.90539 14.684 0.947604 16.4265C0.229817 17.7247 -0.0872105 19.2093 0.0371274 20.6902C0.102771 21.5476 0.312625 22.2506 0.678835 22.8395C0.938148 23.2554 1.29491 23.523 1.65876 23.5746ZM9.48754 14.3128C10.2057 13.7043 10.9253 13.0975 11.6464 12.4928C12.4612 11.8076 13.275 11.1211 14.0878 10.4333C14.3668 10.1963 14.6411 9.94617 14.9062 9.70341C15.1444 9.48568 15.3906 9.26059 15.6383 9.0474C15.8685 8.84915 15.8631 8.62903 15.8225 8.42036C15.5865 7.19794 15.5633 6.11851 15.7527 5.12027C15.8455 4.59812 16.0406 4.09985 16.3268 3.65459C16.6128 3.20932 16.9841 2.826 17.419 2.52703C18.6682 1.64097 20.1808 1.21239 21.7054 1.31252C21.8038 1.32073 21.9016 1.3369 21.9976 1.36081C21.9302 1.43161 21.8713 1.49435 21.8127 1.55756C21.5665 1.82354 21.3198 2.089 21.0726 2.35402C20.4488 3.02441 19.8037 3.71781 19.1792 4.40939C18.7571 4.87679 18.7596 5.2094 19.1885 5.68065C19.974 6.54352 20.7522 7.36016 21.6879 8.33801C21.859 8.50651 22.0477 8.65587 22.2506 8.78344C22.978 9.27055 23.3009 9.32096 24.0378 8.71728C24.701 8.17421 25.3545 7.59842 25.9867 7.04152C26.2565 6.80378 26.5268 6.56655 26.7978 6.32986C26.9045 6.23731 27.0103 6.14399 27.1296 6.03875L27.1605 6.01165C27.3864 7.03764 27.5806 8.01212 27.33 8.99098C26.6983 11.4605 24.9902 12.7714 22.3905 12.783C22.0773 12.7852 21.7589 12.7758 21.4504 12.7671C21.0982 12.7573 20.7335 12.7476 20.3745 12.7523C20.1444 12.7531 19.9204 12.8265 19.7338 12.9624L19.3937 13.2383C18.311 14.116 17.1917 15.0235 16.1245 15.9571C15.3248 16.6569 14.5362 17.3957 13.7735 18.1101C13.4363 18.4262 13.0982 18.7416 12.7591 19.0563C12.7492 19.0659 12.7399 19.0758 12.731 19.0865C12.7282 19.0902 12.725 19.0937 12.7215 19.097C12.6701 19.1423 12.6126 19.1859 12.5516 19.2315C12.3968 19.3288 12.267 19.4614 12.1725 19.6187C12.0961 19.8112 12.0625 20.0183 12.0741 20.2254C12.073 20.2861 12.072 20.3465 12.0686 20.4053C12.0574 20.5967 12.0507 20.7886 12.044 20.9803C12.0345 21.2473 12.0248 21.5231 12.0025 21.7921C11.9862 21.9891 11.974 22.1873 11.9618 22.3858C11.9435 22.9347 11.8792 23.4813 11.7697 24.0194C11.3599 25.7618 10.2125 26.8288 8.35924 27.1907C7.61894 27.3492 6.85434 27.354 6.11217 27.2045C5.95998 27.172 5.80555 27.1245 5.62672 27.0694C5.59648 27.0599 5.56534 27.0504 5.53331 27.0406C5.72619 26.8915 5.9154 26.746 6.10094 26.6037C6.67611 26.1619 7.21912 25.745 7.75022 25.3101C8.0261 25.0746 8.28786 24.8229 8.53412 24.5563C8.6173 24.4695 8.7006 24.3828 8.78479 24.2975C9.11402 23.9637 9.1582 23.5458 8.91248 23.089C8.74925 22.7723 8.55173 22.4748 8.32349 22.2019C7.68605 21.4639 7.00836 20.7083 6.30888 19.956C5.79565 19.4039 5.4725 19.3847 4.86788 19.8696C4.28443 20.3378 3.70226 20.8078 3.12136 21.2793C2.78865 21.5485 2.45579 21.8177 2.12277 22.0867C2.05646 22.1402 1.98789 22.1913 1.90685 22.2522C1.90359 22.2546 1.90022 22.2571 1.89696 22.2597C1.61998 21.3199 1.59028 20.3238 1.81074 19.369C1.90903 18.9415 2.0387 18.522 2.19865 18.1138C2.82293 16.531 3.99843 15.6586 5.7925 15.4466L6.55594 15.356C7.23474 15.2751 7.91356 15.1942 8.59281 15.1181C8.71862 15.1164 8.84089 15.076 8.94319 15.0021C9.04549 14.9283 9.12291 14.8247 9.16505 14.7052C9.23952 14.5501 9.35017 14.4154 9.48754 14.3128Z" fill="#0D73BA"/>
</g>
<defs>
<clipPath id="clip0_7_233">
<rect width="29" height="29" fill="white"/>
</clipPath>
</defs>
</svg>
