<svg width="23" height="23" viewBox="0 0 23 23" fill="none" xmlns="http://www.w3.org/2000/svg">
<g clip-path="url(#clip0_17_395)">
<path d="M22.3856 9.39167C22.768 8.90152 22.9822 8.30117 22.9963 7.67968C23.0105 7.0582 22.8239 6.44871 22.4642 5.94167L19.0803 1.20463C18.8145 0.83214 18.4635 0.528513 18.0566 0.318991C17.6497 0.10947 17.1987 0.000108423 16.7411 0L6.2588 0C5.80115 0.000108423 5.35014 0.10947 4.94326 0.318991C4.53639 0.528513 4.18541 0.83214 3.91951 1.20463L0.535637 5.94167C0.176687 6.44913 -0.00922725 7.05874 0.00544494 7.68015C0.0201171 8.30156 0.234595 8.90171 0.617096 9.39167L11.4999 23.1035L22.3856 9.39167ZM6.95072 8.625L9.63406 17.664L2.45518 8.625H6.95072ZM20.5447 8.625L13.3706 17.664L16.0491 8.625H20.5447ZM14.0501 8.625L11.4999 17.2299L8.9498 8.625H14.0501ZM8.93735 6.70833L10.3058 1.91667H12.694L14.0625 6.70833H8.93735ZM17.5211 2.31821L20.6568 6.70833H16.0568L14.6873 1.91667H16.7411C16.8937 1.91665 17.0441 1.95308 17.1797 2.02292C17.3154 2.09277 17.4325 2.194 17.5211 2.31821ZM5.47872 2.31821C5.56738 2.194 5.68443 2.09277 5.82011 2.02292C5.9558 1.95308 6.1062 1.91665 6.2588 1.91667H8.31251L6.94401 6.70833H2.34401L5.47872 2.31821Z" fill="#1993D3"/>
</g>
<defs>
<clipPath id="clip0_17_395">
<rect width="23" height="23" fill="white"/>
</clipPath>
</defs>
</svg>
