<svg width="38" height="40" viewBox="0 0 38 40" fill="none" xmlns="http://www.w3.org/2000/svg">
<g clip-path="url(#clip0_9_252)">
<path d="M37.82 12.932C37.8955 17.7395 36.6932 22.2497 34.4159 26.4882C32.9196 29.2731 31.1271 31.8519 28.8157 34.0453C26.7067 36.0761 24.3464 37.8364 21.7907 39.2847C21.3565 39.5176 20.9054 39.7183 20.4411 39.8853C20.1996 39.9899 19.9318 40.0201 19.6726 39.9726C19.4132 39.9248 19.1746 39.8013 18.9874 39.6181C18.771 39.4326 18.5138 39.2996 18.2361 39.2295C13.5209 38.0374 9.8296 35.3712 6.95097 31.5665C3.92937 27.5727 1.95627 23.0904 0.858189 18.2464C0.357032 16.0355 -0.0335364 13.7896 0.0342842 11.5024C0.0608625 10.0065 0.292086 8.52091 0.721691 7.08597C0.812625 6.78449 0.948135 6.49786 1.12385 6.23538C1.31572 5.95672 1.62875 5.80608 1.96649 5.9644C3.32359 6.60104 4.79298 6.62479 6.23851 6.69084C9.24477 6.82832 12.0869 6.12138 14.7541 4.78776C16.4743 3.92743 17.9012 2.71472 18.7585 0.95119C18.8175 0.819723 18.8858 0.692538 18.963 0.570659C19.3795 -0.0411061 20.1759 -0.0925026 20.5588 0.5238C21.9865 2.82279 24.1569 4.21281 26.523 5.38659C28.8405 6.53633 31.2931 6.80696 33.8375 6.55116C34.4169 6.49289 34.9975 6.44812 35.5789 6.41674C36.3813 6.37354 36.7099 6.57523 37.0544 7.34817C37.5075 8.37886 37.7643 9.48292 37.8122 10.6053C37.8516 11.3789 37.82 12.1562 37.82 12.932ZM20.081 3.03422C19.9556 3.16397 19.8489 3.2576 19.7622 3.36667C18.8601 4.50321 17.7293 5.44339 16.4411 6.12828C12.2198 8.3819 7.74829 8.93736 3.06901 7.89652C2.85464 7.84879 2.63737 7.81455 2.37444 7.76514C2.0737 9.34087 2.02247 10.9531 2.22261 12.5443C2.41556 14.1982 2.71596 15.8382 3.122 17.4543C4.21831 22.0205 6.2485 26.3178 9.08817 30.0828C11.7599 33.6057 15.2098 36.0148 19.5886 37.0527C19.8806 37.122 20.1282 37.1704 20.4155 36.9943C22.898 35.4707 25.2516 33.783 27.2765 31.6904C30.111 28.761 32.1671 25.3386 33.6346 21.5776C35.144 17.7107 35.6252 13.6817 35.3746 9.55955C35.3335 9.23489 35.2722 8.91306 35.1909 8.59586C32.2923 9.31855 29.5476 8.97588 26.9106 7.89521C24.2736 6.81454 21.9108 5.30665 20.0814 3.03422H20.081Z" fill="#58C57E"/>
<path d="M17.8583 25.6303C18.348 25.0688 18.7444 24.6115 19.1443 24.1563C21.2996 21.6957 23.6181 19.3789 26.0845 17.2214C26.3418 16.9881 26.6267 16.7866 26.9333 16.6212C27.1664 16.5002 27.4334 16.4583 27.6931 16.5018C27.9528 16.5453 28.1907 16.6719 28.3701 16.8621C28.6821 17.213 28.7232 17.7405 28.4287 18.2288C28.2624 18.4987 28.0637 18.7478 27.8368 18.9706C26.8522 19.952 25.8298 20.8975 24.8661 21.8982C23.2199 23.6076 21.6014 25.3436 19.9827 27.078C18.6854 28.4686 18.1306 28.5619 16.5438 27.5039C15.2163 26.6187 13.9072 25.7071 12.6166 24.7688C12.0927 24.3565 11.5926 23.9158 11.1184 23.4488C10.9902 23.3311 10.8799 23.196 10.7909 23.0474C10.5363 22.6221 10.5623 22.1627 10.8527 21.8469C10.9878 21.6916 11.1711 21.5849 11.3741 21.5429C11.5771 21.5009 11.7885 21.5261 11.9755 21.6147C12.3391 21.793 12.6832 22.0078 13.0024 22.2555C14.5989 23.3614 16.1913 24.4716 17.8583 25.6303Z" fill="#58C57E"/>
</g>
<defs>
<clipPath id="clip0_9_252">
<rect width="38" height="40" fill="white"/>
</clipPath>
</defs>
</svg>
